<?xml version="1.0" encoding="UTF-8" standalone="no"?>
<!-- Created with Inkscape (http://www.inkscape.org/) -->

<svg
   xmlns:dc="http://purl.org/dc/elements/1.1/"
   xmlns:cc="http://creativecommons.org/ns#"
   xmlns:rdf="http://www.w3.org/1999/02/22-rdf-syntax-ns#"
   xmlns:svg="http://www.w3.org/2000/svg"
   xmlns="http://www.w3.org/2000/svg"
   xmlns:sodipodi="http://sodipodi.sourceforge.net/DTD/sodipodi-0.dtd"
   xmlns:inkscape="http://www.inkscape.org/namespaces/inkscape"
   width="210mm"
   height="210mm"
   viewBox="0 0 210 210"
   version="1.1"
   id="svg8"
   inkscape:version="0.92.4 (5da689c313, 2019-01-14)"
   sodipodi:docname="ff_kaska.svg"
   inkscape:export-filename="D:\ResDev\_Orgs\BrxÅdwez_lanva\ff_kaska.png"
   inkscape:export-xdpi="48.380951"
   inkscape:export-ydpi="48.380951">
  <defs
     id="defs2" />
  <sodipodi:namedview
     id="base"
     pagecolor="#ffffff"
     bordercolor="#666666"
     borderopacity="1.0"
     inkscape:pageopacity="0.0"
     inkscape:pageshadow="2"
     inkscape:zoom="0.98994949"
     inkscape:cx="342.2408"
     inkscape:cy="428.60127"
     inkscape:document-units="mm"
     inkscape:current-layer="layer1"
     showgrid="false"
     showguides="false"
     inkscape:window-width="1842"
     inkscape:window-height="1051"
     inkscape:window-x="1669"
     inkscape:window-y="-9"
     inkscape:window-maximized="1" />
  <metadata
     id="metadata5">
    <rdf:RDF>
      <cc:Work
         rdf:about="">
        <dc:format>image/svg+xml</dc:format>
        <dc:type
           rdf:resource="http://purl.org/dc/dcmitype/StillImage" />
        <dc:title></dc:title>
      </cc:Work>
    </rdf:RDF>
  </metadata>
  <g
     inkscape:label="ãƒ¬ã‚¤ãƒ¤ãƒ¼ 1"
     inkscape:groupmode="layer"
     id="layer1"
     transform="translate(0,-87)">
    <rect
       style="opacity:1;fill:#fffed5;fill-opacity:1;stroke:none;stroke-width:1.47799993;stroke-linecap:round;stroke-linejoin:round;stroke-miterlimit:4;stroke-dasharray:none;stroke-dashoffset:53.70708847;stroke-opacity:1;paint-order:normal"
       id="rect817"
       width="210.60838"
       height="211.94473"
       x="0"
       y="86.124344" />
    <path
       style="font-style:normal;font-variant:normal;font-weight:normal;font-stretch:normal;font-size:19.75555611px;line-height:1.25;font-family:Amiri;-inkscape-font-specification:'Amiri, Normal';font-variant-ligatures:normal;font-variant-caps:normal;font-variant-numeric:normal;font-feature-settings:normal;text-align:start;letter-spacing:0px;word-spacing:0px;writing-mode:lr-tb;text-anchor:start;fill:#876917;fill-opacity:1;stroke:none;stroke-width:0.68951786"
       d="m 58.1359,111.17352 c -4.550282,0 -8.687144,0.75753 -12.410096,2.2731 -3.72296,1.48528 -7.032103,3.7135 -9.927737,6.68402 -3.309295,3.39491 -5.776125,7.25971 -7.401227,11.59427 -1.595553,4.30425 -2.393503,9.19963 -2.393503,14.68602 0,5.4864 0.79795,10.38119 2.393503,14.68544 1.625102,4.30425 4.091932,8.15409 7.401227,11.54898 2.866088,2.94022 6.175227,5.16786 9.927737,6.68343 3.782049,1.51559 7.91891,2.27368 12.410096,2.27368 4.520735,0 8.642427,-0.74253 12.365383,-2.2278 3.693407,-1.51557 7.003123,-3.75877 9.928309,-6.72931 3.309292,-3.39489 5.776125,-7.24473 7.401226,-11.54898 1.625101,-4.36487 2.437648,-9.25966 2.437648,-14.68544 0,-10.57873 -2.954821,-19.09641 -8.864275,-25.55278 -0.443211,-0.48499 -0.900857,-0.95506 -1.373613,-1.40973 1.300078,-1.45495 3.250305,-2.18252 5.850466,-2.18252 3.516123,0 5.968362,1.13656 7.357083,3.40994 1.388727,2.27336 2.08278,6.71425 2.08278,13.32216 v 56.01581 H 85.038875 v 4.86495 H 112.7393 v -4.86495 h -8.42111 v -56.37927 c 0,-7.48695 -1.46224,-12.89793 -4.387423,-16.2322 -2.92519,-3.33428 -7.638177,-5.0014 -14.138582,-5.0014 -2.097855,0 -4.22553,0.25749 -6.382484,0.77279 -1.802382,0.42436 -3.604351,1.03096 -5.406737,1.81907 -4.550284,-2.54617 -9.839416,-3.81928 -15.867064,-3.81928 z m 0,4.86496 c 7.239085,0 12.705096,2.56117 16.398506,7.68384 3.69341,5.09234 5.540314,12.65549 5.540314,22.68861 0,10.00283 -1.846904,17.56539 -5.540314,22.68804 -3.69341,5.09234 -9.159421,7.63854 -16.398506,7.63854 -7.268629,0 -12.749813,-2.5462 -16.443223,-7.63854 -3.69341,-5.12265 -5.539741,-12.68521 -5.539741,-22.68804 0,-10.03312 1.846331,-17.59627 5.539741,-22.68861 3.69341,-5.12267 9.174594,-7.68384 16.443223,-7.68384 z"
       id="path864"
       inkscape:connector-curvature="0" />
    <flowRoot
       style="font-style:normal;font-weight:normal;font-size:40px;line-height:1.25;font-family:sans-serif;letter-spacing:0px;word-spacing:0px;fill:#000000;fill-opacity:1;stroke:none;stroke-width:0.26458332"
       id="flowRoot1412"
       xml:space="preserve"
       transform="matrix(2.3192769,0,0,2.3192769,-77.146587,-184.7501)"><flowRegion
         id="flowRegion1414"><rect
           y="176.4976"
           x="101.01525"
           height="335.67383"
           width="464.85641"
           id="rect1416" /></flowRegion><flowPara
         id="flowPara1418"></flowPara></flowRoot>    <flowRoot
       transform="matrix(1.5031379,0,0,1.6224891,-96.308236,-517.56699)"
       style="font-style:normal;font-weight:normal;font-size:40px;line-height:1.25;font-family:sans-serif;letter-spacing:0px;word-spacing:0px;fill:#876917;fill-opacity:1;stroke:none;stroke-width:0.26458332"
       id="flowRoot1420"
       xml:space="preserve"><flowRegion
         style="fill:#876917;fill-opacity:1"
         id="flowRegion1422"><rect
           style="fill:#876917;fill-opacity:1"
           y="434.08649"
           x="74.751289"
           height="200.01021"
           width="628.31488"
           id="rect1424" /></flowRegion><flowPara
         id="flowPara1426">Kaska</flowPara></flowRoot>    <g
       aria-label="ðŸŽ"
       transform="matrix(0.73466036,0,0,0.76100756,-203.50143,55.805322)"
       style="font-style:normal;font-weight:normal;font-size:40px;line-height:1.25;font-family:sans-serif;letter-spacing:0px;word-spacing:0px;fill:#000000;fill-opacity:1;stroke:none"
       id="flowRoot1445">
      <path
         d="m 494.32748,99.604612 q 3.91666,0 7.54166,1.041668 3.625,1 6.79167,2.875 3.16667,1.83333 5.75,4.41667 2.58333,2.58333 4.41667,5.75 1.875,3.16666 2.875,6.79166 1.04166,3.625 1.04166,7.54167 0,2.70833 -0.54166,5.54167 -0.5,2.79166 -1.58334,5.29166 l -15,33.83334 q -1.08333,2.45833 -2.95833,4.41666 -1.83333,2 -4.16667,3.41667 -2.29166,1.41667 -4.91666,2.16667 -2.625,0.75 -5.25,0.75 -2.79167,0 -5.45834,-0.79167 -2.66666,-0.79167 -5.04166,-2.29167 -2.33334,1.5 -5,2.29167 -2.66667,0.79167 -5.45834,0.79167 -5.625,0 -10,-2.79167 -4.375,-2.75 -7.125,-7.54167 -0.0417,-0.0833 -0.0833,-0.125 0,0 -0.0417,-0.0833 l -15.125,-34.20833 q -1.08333,-2.41667 -1.58333,-5.20834 -0.5,-2.83333 -0.5,-5.45833 0,-5.54167 2.08333,-10.66667 2.125,-5.125 5.95833,-9.08333 -2.5,-3.125 -3.79166,-6.875 -1.25,-3.791668 -1.25,-7.791668 v -6 h 23.95833 q 3,0 5.875,0.75 2.875,0.75 5.5,2.125 1.25,-1.375 2.95834,-2.125 1.75,-0.75 3.625,-0.75 1.875,0 3.5,0.708333 1.625,0.708333 2.83333,1.958333 1.25,1.208334 1.95833,2.833334 0.70834,1.625 0.70834,3.5 v 3.999998 q 3.66666,-0.999998 7.5,-0.999998 z m -10.5,9.791668 v 4.33333 l 8.04166,-8 q -1.5,0.16667 -2.95833,0.54167 -1.45833,0.33333 -2.875,0.875 z m -9,-12.791668 v 17.958338 q 0,1.25 0.875,2.125 0.875,0.875 2.125,0.875 1.25,0 2.125,-0.875 0.875,-0.875 0.875,-2.125 V 96.604612 q 0,-1.25 -0.875,-2.125 -0.875,-0.875 -2.125,-0.875 -1.25,0 -2.125,0.875 -0.875,0.875 -0.875,2.125 z m -14.95834,-3 h -17.95833 q 0,3.708333 1.41666,6.999998 1.41667,3.25 3.83334,5.70834 2.45833,2.41666 5.70833,3.83333 3.29167,1.41667 7,1.41667 h 11.95834 V 98.187945 q -2.45834,-2.25 -5.54167,-3.416666 -3.08333,-1.166667 -6.41667,-1.166667 z m -12.45833,16.833338 q -2.75,2.20833 -4.70834,5.125 -1.95833,2.91666 -2.95833,6.29166 l 9.95833,-9.91666 q -0.58333,-0.33334 -1.16666,-0.70834 -0.58334,-0.375 -1.125,-0.79166 z m -8.41667,19.79166 q 0.16667,1.79167 0.70833,3.70834 l 19.37501,-19.375 q -0.95834,-0.0833 -1.95834,-0.20834 -0.95833,-0.125 -1.91667,-0.33333 z m 2.83333,9.16667 1.375,3 27.83334,-27.83333 h -4.375 z m 3.66667,8.29167 1.375,3.04166 30.20834,-30.25 q -1.66667,-0.16666 -3.04167,-1.29166 z m 3.70833,8.29166 1.33334,3.04167 51.91667,-51.91667 q -1.625,-0.625 -3.375,-1 z m 3.66667,8.33334 1.33333,3 55.58334,-55.54167 q -0.58333,-0.54167 -1.20833,-1.04167 -0.58334,-0.5 -1.20834,-0.95833 z m 3.95833,8 q 0.45834,0.625 1.00001,1.16666 0.58333,0.54167 1.16666,1.04167 l 55.75,-55.75 q -0.33333,-0.75 -0.70833,-1.45833 -0.375,-0.70834 -0.83333,-1.375 z m 44.12501,-3.83334 3.45833,-7.79166 -16.75,16.75 q 1.33333,0 2.58333,-0.16667 1.25,-0.125 2.5,-0.58333 z m 9.5,-21.45833 3.45833,-7.83333 -34.66667,34.66666 q 1.125,1.08334 2.5,1.875 z m 6.29166,-18.29167 q 0,-0.20833 0,-0.33333 0.0417,-0.16667 0.0417,-0.375 0,-0.83333 -0.0833,-1.70833 -0.0833,-0.875 -0.20834,-1.70834 l -52.41666,52.45834 q 1.625,0.375 3.29166,0.375 h 0.66667 z"
         style="font-style:normal;font-variant:normal;font-weight:normal;font-stretch:normal;font-size:85.33333588px;font-family:Amiri;-inkscape-font-specification:'Amiri, Normal';font-variant-ligatures:normal;font-variant-caps:normal;font-variant-numeric:normal;font-feature-settings:normal;text-align:start;writing-mode:lr-tb;text-anchor:start;fill:#ff2020;fill-opacity:1"
         id="path1453"
         inkscape:connector-curvature="0" />
    </g>
  </g>
</svg>
