<?xml version="1.0" encoding="UTF-8" standalone="no"?>
<!-- Created with Inkscape (http://www.inkscape.org/) -->

<svg
   xmlns:dc="http://purl.org/dc/elements/1.1/"
   xmlns:cc="http://creativecommons.org/ns#"
   xmlns:rdf="http://www.w3.org/1999/02/22-rdf-syntax-ns#"
   xmlns:svg="http://www.w3.org/2000/svg"
   xmlns="http://www.w3.org/2000/svg"
   xmlns:sodipodi="http://sodipodi.sourceforge.net/DTD/sodipodi-0.dtd"
   xmlns:inkscape="http://www.inkscape.org/namespaces/inkscape"
   width="1500mm"
   height="500mm"
   viewBox="0 0 1500 500"
   version="1.1"
   id="svg8"
   inkscape:version="0.92.4 (5da689c313, 2019-01-14)"
   sodipodi:docname="ff_kaska_hd.svg"
   inkscape:export-filename="D:\ResDev\_Orgs\BrxÅdwez_lanva\ff_kaska_hdr.png"
   inkscape:export-xdpi="25.4"
   inkscape:export-ydpi="25.4">
  <defs
     id="defs2" />
  <sodipodi:namedview
     id="base"
     pagecolor="#ffffff"
     bordercolor="#666666"
     borderopacity="1.0"
     inkscape:pageopacity="0.0"
     inkscape:pageshadow="2"
     inkscape:zoom="0.24748737"
     inkscape:cx="2056.4654"
     inkscape:cy="-252.46707"
     inkscape:document-units="mm"
     inkscape:current-layer="layer1"
     showgrid="false"
     showguides="false"
     inkscape:window-width="1503"
     inkscape:window-height="1251"
     inkscape:window-x="89"
     inkscape:window-y="71"
     inkscape:window-maximized="1" />
  <metadata
     id="metadata5">
    <rdf:RDF>
      <cc:Work
         rdf:about="">
        <dc:format>image/svg+xml</dc:format>
        <dc:type
           rdf:resource="http://purl.org/dc/dcmitype/StillImage" />
        <dc:title></dc:title>
      </cc:Work>
    </rdf:RDF>
  </metadata>
  <g
     inkscape:label="ãƒ¬ã‚¤ãƒ¤ãƒ¼ 1"
     inkscape:groupmode="layer"
     id="layer1"
     transform="translate(0,203)">
    <rect
       style="opacity:1;fill:#fffed5;fill-opacity:1;stroke:none;stroke-width:6.11193037;stroke-linecap:round;stroke-linejoin:round;stroke-miterlimit:4;stroke-dasharray:none;stroke-dashoffset:53.70708847;stroke-opacity:1;paint-order:normal"
       id="rect817"
       width="1501.775"
       height="508.27805"
       x="0"
       y="-207.1852" />
    <flowRoot
       style="font-style:normal;font-weight:normal;font-size:40px;line-height:1.25;font-family:sans-serif;letter-spacing:0px;word-spacing:0px;fill:#000000;fill-opacity:1;stroke:none;stroke-width:0.26458332"
       id="flowRoot1412"
       xml:space="preserve"
       transform="matrix(2.3192769,0,0,2.3192769,-77.146587,-184.7501)"><flowRegion
         id="flowRegion1414"><rect
           y="176.4976"
           x="101.01525"
           height="335.67383"
           width="464.85641"
           id="rect1416" /></flowRegion><flowPara
         id="flowPara1418" /></flowRoot>    <flowRoot
       transform="matrix(7.1623642,0,0,7.7310661,113.69293,-3394.2428)"
       style="font-style:normal;font-weight:normal;font-size:40px;line-height:1.25;font-family:sans-serif;letter-spacing:0px;word-spacing:0px;fill:#876917;fill-opacity:1;stroke:none;stroke-width:0.26458332"
       id="flowRoot1420"
       xml:space="preserve"><flowRegion
         style="fill:#876917;fill-opacity:1"
         id="flowRegion1422"><rect
           style="fill:#876917;fill-opacity:1"
           y="434.08649"
           x="74.751289"
           height="200.01021"
           width="628.31488"
           id="rect1424" /></flowRegion><flowPara
         id="flowPara1426">Kaska</flowPara></flowRoot>    <g
       aria-label="ðŸŽ"
       transform="matrix(1.683855,0,0,1.7442431,-257.90985,-39.646429)"
       style="font-style:normal;font-weight:normal;font-size:40px;line-height:1.25;font-family:sans-serif;letter-spacing:0px;word-spacing:0px;fill:#000000;fill-opacity:1;stroke:none"
       id="flowRoot1445">
      <path
         d="m 494.32748,99.604612 q 3.91666,0 7.54166,1.041668 3.625,1 6.79167,2.875 3.16667,1.83333 5.75,4.41667 2.58333,2.58333 4.41667,5.75 1.875,3.16666 2.875,6.79166 1.04166,3.625 1.04166,7.54167 0,2.70833 -0.54166,5.54167 -0.5,2.79166 -1.58334,5.29166 l -15,33.83334 q -1.08333,2.45833 -2.95833,4.41666 -1.83333,2 -4.16667,3.41667 -2.29166,1.41667 -4.91666,2.16667 -2.625,0.75 -5.25,0.75 -2.79167,0 -5.45834,-0.79167 -2.66666,-0.79167 -5.04166,-2.29167 -2.33334,1.5 -5,2.29167 -2.66667,0.79167 -5.45834,0.79167 -5.625,0 -10,-2.79167 -4.375,-2.75 -7.125,-7.54167 -0.0417,-0.0833 -0.0833,-0.125 0,0 -0.0417,-0.0833 l -15.125,-34.20833 q -1.08333,-2.41667 -1.58333,-5.20834 -0.5,-2.83333 -0.5,-5.45833 0,-5.54167 2.08333,-10.66667 2.125,-5.125 5.95833,-9.08333 -2.5,-3.125 -3.79166,-6.875 -1.25,-3.791668 -1.25,-7.791668 v -6 h 23.95833 q 3,0 5.875,0.75 2.875,0.75 5.5,2.125 1.25,-1.375 2.95834,-2.125 1.75,-0.75 3.625,-0.75 1.875,0 3.5,0.708333 1.625,0.708333 2.83333,1.958333 1.25,1.208334 1.95833,2.833334 0.70834,1.625 0.70834,3.5 v 3.999998 q 3.66666,-0.999998 7.5,-0.999998 z m -10.5,9.791668 v 4.33333 l 8.04166,-8 q -1.5,0.16667 -2.95833,0.54167 -1.45833,0.33333 -2.875,0.875 z m -9,-12.791668 v 17.958338 q 0,1.25 0.875,2.125 0.875,0.875 2.125,0.875 1.25,0 2.125,-0.875 0.875,-0.875 0.875,-2.125 V 96.604612 q 0,-1.25 -0.875,-2.125 -0.875,-0.875 -2.125,-0.875 -1.25,0 -2.125,0.875 -0.875,0.875 -0.875,2.125 z m -14.95834,-3 h -17.95833 q 0,3.708333 1.41666,6.999998 1.41667,3.25 3.83334,5.70834 2.45833,2.41666 5.70833,3.83333 3.29167,1.41667 7,1.41667 h 11.95834 V 98.187945 q -2.45834,-2.25 -5.54167,-3.416666 -3.08333,-1.166667 -6.41667,-1.166667 z m -12.45833,16.833338 q -2.75,2.20833 -4.70834,5.125 -1.95833,2.91666 -2.95833,6.29166 l 9.95833,-9.91666 q -0.58333,-0.33334 -1.16666,-0.70834 -0.58334,-0.375 -1.125,-0.79166 z m -8.41667,19.79166 q 0.16667,1.79167 0.70833,3.70834 l 19.37501,-19.375 q -0.95834,-0.0833 -1.95834,-0.20834 -0.95833,-0.125 -1.91667,-0.33333 z m 2.83333,9.16667 1.375,3 27.83334,-27.83333 h -4.375 z m 3.66667,8.29167 1.375,3.04166 30.20834,-30.25 q -1.66667,-0.16666 -3.04167,-1.29166 z m 3.70833,8.29166 1.33334,3.04167 51.91667,-51.91667 q -1.625,-0.625 -3.375,-1 z m 3.66667,8.33334 1.33333,3 55.58334,-55.54167 q -0.58333,-0.54167 -1.20833,-1.04167 -0.58334,-0.5 -1.20834,-0.95833 z m 3.95833,8 q 0.45834,0.625 1.00001,1.16666 0.58333,0.54167 1.16666,1.04167 l 55.75,-55.75 q -0.33333,-0.75 -0.70833,-1.45833 -0.375,-0.70834 -0.83333,-1.375 z m 44.12501,-3.83334 3.45833,-7.79166 -16.75,16.75 q 1.33333,0 2.58333,-0.16667 1.25,-0.125 2.5,-0.58333 z m 9.5,-21.45833 3.45833,-7.83333 -34.66667,34.66666 q 1.125,1.08334 2.5,1.875 z m 6.29166,-18.29167 q 0,-0.20833 0,-0.33333 0.0417,-0.16667 0.0417,-0.375 0,-0.83333 -0.0833,-1.70833 -0.0833,-0.875 -0.20834,-1.70834 l -52.41666,52.45834 q 1.625,0.375 3.29166,0.375 h 0.66667 z"
         style="font-style:normal;font-variant:normal;font-weight:normal;font-stretch:normal;font-size:85.33333588px;font-family:Amiri;-inkscape-font-specification:'Amiri, Normal';font-variant-ligatures:normal;font-variant-caps:normal;font-variant-numeric:normal;font-feature-settings:normal;text-align:start;writing-mode:lr-tb;text-anchor:start;fill:#ff2020;fill-opacity:1"
         id="path1453"
         inkscape:connector-curvature="0" />
    </g>
    <path
       style="font-style:normal;font-variant:normal;font-weight:normal;font-stretch:normal;font-size:19.75555611px;line-height:1.25;font-family:Amiri;-inkscape-font-specification:'Amiri, Normal';font-variant-ligatures:normal;font-variant-caps:normal;font-variant-numeric:normal;font-feature-settings:normal;text-align:start;letter-spacing:0px;word-spacing:0px;writing-mode:lr-tb;text-anchor:start;fill:#876917;fill-opacity:1;stroke:none;stroke-width:2.07800961"
       d="m 147.87753,-172.43313 c -13.88948,0 -26.517,2.25403 -37.8811,6.76357 -11.364117,4.41934 -21.465081,11.0477 -30.303831,19.88643 -10.101439,10.10144 -17.633048,21.60108 -22.593578,34.49847 -4.870332,12.807182 -7.306029,27.373312 -7.306029,43.697941 0,16.324598 2.435697,30.890712 7.306029,43.697894 4.96053,12.807196 12.492139,24.26231095 22.593578,34.363723 8.74855,8.748563 18.849511,15.376848 30.303831,19.886399 11.5445,4.509599 24.17201,6.763545 37.8811,6.763545 13.79928,0 26.38055,-2.209407 37.7446,-6.628795 11.27395,-4.509554 21.37489,-11.182375 30.30384,-20.021149 10.10146,-10.10141205 17.63305,-21.556527 22.59362,-34.363723 4.96047,-12.987559 7.44076,-27.553674 7.44076,-43.697894 0,-31.476829 -9.01944,-56.820961 -27.05769,-76.031721 -1.35289,-1.4431 -2.75157,-2.84008 -4.19467,-4.19289 3.96847,-4.32916 9.92141,-6.49408 17.85829,-6.49408 10.73277,0 18.21979,3.38187 22.45883,10.14618 4.23887,6.76432 6.35751,19.97813 6.35751,39.63987 V 62.154343 H 229.9956 v 14.475568 h 84.55564 V 62.154343 h -25.7049 V -105.60262 c 0,-22.2772 -4.46523,-38.37575 -13.39415,-48.29679 -8.9289,-9.92115 -23.31335,-14.88157 -43.15544,-14.88157 -6.40358,0 -12.89817,0.76618 -19.48218,2.29946 -5.50165,1.26265 -11.00381,3.06577 -16.50552,5.4108 -13.88945,-7.57606 -30.03247,-11.36241 -48.43152,-11.36241 z m 0,14.47555 c 22.09689,0 38.78158,7.62075 50.05546,22.86311 11.27398,15.15223 16.91152,37.654382 16.91152,67.507751 0,29.763141 -5.63754,52.265373 -16.91152,67.50767895 C 186.65911,15.073125 169.97442,22.649283 147.87753,22.649283 c -22.18706,0 -38.91806,-7.576158 -50.191976,-22.72832305 C 86.411623,-15.321346 80.774062,-37.823578 80.774062,-67.586719 c 0,-29.853369 5.637561,-52.355521 16.911492,-67.507751 11.273916,-15.24236 28.004916,-22.86311 50.191976,-22.86311 z m 217.72849,9.1383 v 32.25151 c 5.77218,-0.14435 9.59662,-0.21563 11.47265,-0.21563 7.35961,0 12.91455,0.93787 16.66648,2.81381 3.60762,1.87599 6.99943,6.78199 10.17415,14.718852 9.23562,23.666252 16.16286,38.673229 20.78063,45.022628 4.61783,6.205153 12.69759,11.978144 24.24209,17.317479 -16.88389,4.473479 -33.40678,20.058395 -49.56905,46.7551022 L 356.73021,81.060319 h 42.85971 L 441.3665,9.8444712 c 8.51399,-14.5749462 15.94656,-24.0269862 22.29603,-28.3561572 6.34948,-4.473529 13.85296,-6.71105 22.51136,-6.71105 V 81.060319 h 39.82876 V -25.222736 c 8.80266,0 16.37879,2.237521 22.72835,6.71105 6.34945,4.473474 13.78022,13.925499 22.29435,28.3561572 l 41.7765,71.2158478 h 42.85971 L 612.80185,9.8443462 c -16.018,-26.6967082 -32.46824,-42.2816212 -49.35208,-46.7551042 10.39014,-4.762076 18.03892,-10.029775 22.9454,-15.802035 4.90637,-5.772289 10.24498,-16.162308 16.01724,-31.170025 6.2051,-15.72937 10.82211,-25.181472 13.85253,-28.356172 2.88615,-3.03045 9.52438,-4.54463 19.91443,-4.54463 l 10.60644,0.21566 v -32.25149 h -14.28482 c -15.44076,0 -26.69776,2.9574 -33.76875,8.87393 -7.21527,6.06091 -15.36776,19.98803 -24.459,41.778262 -9.66858,22.944687 -17.0284,36.797382 -22.07909,41.55952 -5.05074,4.762088 -13.78114,7.143262 -26.1915,7.143262 v -99.354974 h -39.82876 v 99.354974 c -12.55464,0 -21.35778,-2.453857 -26.40845,-7.360255 -4.90643,-4.906396 -12.12091,-18.686483 -21.64507,-41.342527 -7.79257,-18.471232 -14.14177,-30.593392 -19.04826,-36.365652 -4.7621,-5.91654 -10.24605,-9.74096 -16.45122,-11.47268 -6.06083,-1.87598 -16.59621,-2.81386 -31.60409,-2.81386 z"
       id="path864-5"
       inkscape:connector-curvature="0" />
    <g
       aria-label="Æ¢eznÄ“'bix"
       transform="matrix(4.0659609,0,0,4.0659608,-10285.091,-1236.0843)"
       style="font-style:normal;font-weight:normal;font-size:40px;line-height:1.25;font-family:sans-serif;letter-spacing:0px;word-spacing:0px;fill:#876917;fill-opacity:1;stroke:none"
       id="flowRoot2038">
      <path
         d="m 2732.9551,289.13867 v -19.12109 q 0,-3.78906 -1.0742,-5.25391 -1.0743,-1.46484 -3.4571,-1.46484 v 22.28515 q -3.6718,4.1211 -9.8242,4.1211 -6.1328,0 -9.8242,-4.10156 -3.6719,-4.10157 -3.6719,-11.01563 0,-6.91406 3.6719,-11.01562 3.6914,-4.1211 9.8437,-4.1211 2.1875,0 4.0821,0.52735 h 5.7617 q 4.4336,0 6.4258,2.38281 2.0117,2.38281 2.0117,7.65625 v 19.12109 z m -14.336,-26.48437 q -4.2968,0 -6.8359,3.20312 -2.5195,3.20313 -2.5195,8.71094 0,5.52734 2.5195,8.73047 2.5391,3.20312 6.8359,3.20312 3.418,0 5.918,-2.01172 v -20.46875 q -2.6953,-1.36718 -5.918,-1.36718 z"
         style="font-style:normal;font-variant:normal;font-weight:normal;font-stretch:normal;font-size:40px;font-family:'Yu Gothic UI';-inkscape-font-specification:'Yu Gothic UI, Normal';font-variant-ligatures:normal;font-variant-caps:normal;font-variant-numeric:normal;font-feature-settings:normal;text-align:start;writing-mode:lr-tb;text-anchor:start;fill:#876917;fill-opacity:1"
         id="path2046"
         inkscape:connector-curvature="0" />
      <path
         d="m 2760.1426,279.93945 h -14.1211 q 0.078,3.33985 1.7969,5.15625 1.7187,1.81641 4.7265,1.81641 3.3789,0 6.211,-2.22656 v 3.00781 q -2.6368,1.91406 -6.9727,1.91406 -4.2383,0 -6.6602,-2.71484 -2.4218,-2.73438 -2.4218,-7.67578 0,-4.66797 2.6367,-7.59766 2.6562,-2.94922 6.582,-2.94922 3.9258,0 6.0742,2.53906 2.1485,2.53907 2.1485,7.05079 z m -3.2813,-2.71484 q -0.019,-2.77344 -1.3476,-4.31641 -1.3086,-1.54297 -3.6524,-1.54297 -2.2656,0 -3.8476,1.6211 -1.5821,1.62109 -1.9532,4.23828 z"
         style="font-style:normal;font-variant:normal;font-weight:normal;font-stretch:normal;font-size:40px;font-family:'Yu Gothic UI';-inkscape-font-specification:'Yu Gothic UI, Normal';font-variant-ligatures:normal;font-variant-caps:normal;font-variant-numeric:normal;font-feature-settings:normal;text-align:start;writing-mode:lr-tb;text-anchor:start;fill:#876917;fill-opacity:1"
         id="path2048"
         inkscape:connector-curvature="0" />
      <path
         d="m 2778.9512,270.05664 -11.836,16.34766 h 11.7188 v 2.73437 h -16.4258 v -0.99609 l 11.8359,-16.26953 h -10.7226 v -2.73438 h 15.4297 z"
         style="font-style:normal;font-variant:normal;font-weight:normal;font-stretch:normal;font-size:40px;font-family:'Yu Gothic UI';-inkscape-font-specification:'Yu Gothic UI, Normal';font-variant-ligatures:normal;font-variant-caps:normal;font-variant-numeric:normal;font-feature-settings:normal;text-align:start;writing-mode:lr-tb;text-anchor:start;fill:#876917;fill-opacity:1"
         id="path2050"
         inkscape:connector-curvature="0" />
      <path
         d="m 2799.7324,289.13867 h -3.2031 v -11.40625 q 0,-6.36719 -4.6484,-6.36719 -2.4024,0 -3.9844,1.81641 -1.5625,1.79688 -1.5625,4.55078 v 11.40625 h -3.2031 v -20 h 3.2031 v 3.32031 h 0.078 q 2.2656,-3.78906 6.5625,-3.78906 3.2813,0 5.0195,2.12891 1.7383,2.10937 1.7383,6.11328 z"
         style="font-style:normal;font-variant:normal;font-weight:normal;font-stretch:normal;font-size:40px;font-family:'Yu Gothic UI';-inkscape-font-specification:'Yu Gothic UI, Normal';font-variant-ligatures:normal;font-variant-caps:normal;font-variant-numeric:normal;font-feature-settings:normal;text-align:start;writing-mode:lr-tb;text-anchor:start;fill:#876917;fill-opacity:1"
         id="path2052"
         inkscape:connector-curvature="0" />
      <path
         d="m 2822.4277,278.66992 h -14.3164 q 0,3.94531 1.8555,6.03516 1.5625,1.75781 4.1406,1.75781 4.043,0 5.1953,-4.16016 l 3.0078,0.9961 q -2.0117,5.60547 -8.2421,5.60547 -4.4727,0 -6.9336,-3.20313 -2.1875,-2.83203 -2.1875,-7.4414 0,-5.15625 2.832,-8.1836 2.4219,-2.57812 6.0156,-2.57812 4.1016,0 6.4844,3.125 2.1484,2.8125 2.1484,7.32422 z m -3.164,-2.32422 q -0.2539,-3.28125 -1.8555,-4.9414 -1.3867,-1.42578 -3.5742,-1.42578 -2.5391,0 -4.1016,1.95312 -1.3476,1.69922 -1.5429,4.41406 z m -0.5469,-14.60937 v 2.16797 h -9.7266 v -2.16797 z"
         style="font-style:normal;font-variant:normal;font-weight:normal;font-stretch:normal;font-size:40px;font-family:'Yu Gothic UI';-inkscape-font-specification:'Yu Gothic UI, Normal';font-variant-ligatures:normal;font-variant-caps:normal;font-variant-numeric:normal;font-feature-settings:normal;text-align:start;writing-mode:lr-tb;text-anchor:start;fill:#876917;fill-opacity:1"
         id="path2054"
         inkscape:connector-curvature="0" />
      <path
         d="m 2830.748,261.13086 v 8.73047 h -2.832 v -8.73047 z"
         style="font-style:normal;font-variant:normal;font-weight:normal;font-stretch:normal;font-size:40px;font-family:'Yu Gothic UI';-inkscape-font-specification:'Yu Gothic UI, Normal';font-variant-ligatures:normal;font-variant-caps:normal;font-variant-numeric:normal;font-feature-settings:normal;text-align:start;writing-mode:lr-tb;text-anchor:start;fill:#876917;fill-opacity:1"
         id="path2056"
         inkscape:connector-curvature="0" />
      <path
         d="m 2840.4746,286.24805 h -0.078 v 2.89062 h -3.2031 V 259.5293 h 3.2031 v 13.125 h 0.078 q 2.3633,-3.98438 6.9141,-3.98438 3.8476,0 6.0156,2.69531 2.1875,2.67579 2.1875,7.1875 0,5.01954 -2.4414,8.04688 -2.4414,3.00781 -6.6797,3.00781 -3.9648,0 -5.9961,-3.35937 z m -0.078,-8.06641 v 2.79297 q 0,2.48047 1.6015,4.21875 1.6211,1.71875 4.1016,1.71875 2.9102,0 4.5508,-2.22656 1.6601,-2.22657 1.6601,-6.19141 0,-3.33984 -1.5429,-5.23437 -1.543,-1.89454 -4.1797,-1.89454 -2.793,0 -4.4922,1.95313 -1.6992,1.93359 -1.6992,4.86328 z"
         style="font-style:normal;font-variant:normal;font-weight:normal;font-stretch:normal;font-size:40px;font-family:'Yu Gothic UI';-inkscape-font-specification:'Yu Gothic UI, Normal';font-variant-ligatures:normal;font-variant-caps:normal;font-variant-numeric:normal;font-feature-settings:normal;text-align:start;writing-mode:lr-tb;text-anchor:start;fill:#876917;fill-opacity:1"
         id="path2058"
         inkscape:connector-curvature="0" />
      <path
         d="m 2862.3496,264.06055 q -0.8594,0 -1.4648,-0.58594 -0.6055,-0.58594 -0.6055,-1.48438 0,-0.89843 0.6055,-1.48437 0.6054,-0.60547 1.4648,-0.60547 0.8789,0 1.4844,0.60547 0.625,0.58594 0.625,1.48437 0,0.85938 -0.625,1.46485 -0.6055,0.60547 -1.4844,0.60547 z m 1.5625,25.07812 h -3.2031 v -20 h 3.2031 z"
         style="font-style:normal;font-variant:normal;font-weight:normal;font-stretch:normal;font-size:40px;font-family:'Yu Gothic UI';-inkscape-font-specification:'Yu Gothic UI, Normal';font-variant-ligatures:normal;font-variant-caps:normal;font-variant-numeric:normal;font-feature-settings:normal;text-align:start;writing-mode:lr-tb;text-anchor:start;fill:#876917;fill-opacity:1"
         id="path2060"
         inkscape:connector-curvature="0" />
      <path
         d="m 2885.0059,269.13867 -6.7188,10.11719 6.6016,9.88281 h -3.7305 l -3.9258,-6.48437 q -0.3711,-0.60547 -0.8789,-1.52344 h -0.078 q -0.098,0.17578 -0.918,1.52344 l -4.0039,6.48437 h -3.6914 l 6.8164,-9.80469 -6.5234,-10.19531 h 3.7304 l 3.8672,6.83594 q 0.4297,0.76172 0.8399,1.5625 h 0.078 l 5,-8.39844 z"
         style="font-style:normal;font-variant:normal;font-weight:normal;font-stretch:normal;font-size:40px;font-family:'Yu Gothic UI';-inkscape-font-specification:'Yu Gothic UI, Normal';font-variant-ligatures:normal;font-variant-caps:normal;font-variant-numeric:normal;font-feature-settings:normal;text-align:start;writing-mode:lr-tb;text-anchor:start;fill:#876917;fill-opacity:1"
         id="path2062"
         inkscape:connector-curvature="0" />
    </g>
    <rect
       style="opacity:1;fill:#008000;fill-opacity:1;stroke:none;stroke-width:1.47799993;stroke-linecap:round;stroke-linejoin:round;stroke-miterlimit:4;stroke-dasharray:none;stroke-dashoffset:53.70708847;stroke-opacity:1;paint-order:normal"
       id="rect2065"
       width="776.1507"
       height="7.4835467"
       x="685.81897"
       y="-12.03879" />
    <rect
       style="opacity:1;fill:#008000;fill-opacity:1;stroke:none;stroke-width:1.47799993;stroke-linecap:round;stroke-linejoin:round;stroke-miterlimit:4;stroke-dasharray:none;stroke-dashoffset:53.70708847;stroke-opacity:1;paint-order:normal"
       id="rect2065-2"
       width="776.1507"
       height="7.4835467"
       x="685.81909"
       y="0.73642379" />
  </g>
</svg>
