<svg xmlns="http://www.w3.org/2000/svg" width="210mm" height="210mm" viewBox="0 0 210 210"><path d="M-.08-.764h211.72v212.078H-.08z" fill="#ffffd5"/><g style="line-height:1.25"><path style="-inkscape-font-specification:'Amiri, Normal';font-variant-ligatures:normal;font-variant-caps:normal;font-variant-numeric:normal;font-feature-settings:normal;text-align:start" d="M179.085 166.928q1.097 0 2.484-.716 1.41-.738 1.41-1.118v-6.086q-3.468 1.03-4.162 1.298-1.275.492-2.014 1.387-.715.873-.715 2.103 0 1.253.872 2.193.873.94 2.125.94zm2.417-17.45q1.946 0 3.4 1.79 1.477 1.79 1.477 4.34v9.217q0 2.103 1.387 2.103.201 0 .38-.023.202-.045.336-.09l.268-.134q.157-.09.224-.134.09-.067.157-.134.09-.067.111-.067.18 0 .18.358 0 .47-.224.85-.515.47-1.634 1.096-1.096.604-1.722.604-.94 0-1.723-.895-.783-.917-1.007-2.013-.648.648-2.572 1.834-1.902 1.164-2.931 1.164-2.215 0-3.736-1.477-1.5-1.499-1.5-3.67 0-1.274.694-2.259.716-1.006 1.544-1.32.738-.268 2.685-.94 1.946-.67 3.244-1.14 1.32-.47 1.901-.739.336-.134.425-.335.112-.201.112-.783v-1.208q0-1.589-1.14-2.931-1.12-1.365-2.708-1.365-1.119 0-1.678.694-.537.67-.783 2.08-.38 2.148-2.103 2.148-.671 0-1.096-.582-.425-.581-.425-1.297 0-.18.09-.537.111-.38.223-.537 1.387-1.298 3.67-2.483 2.304-1.186 4.474-1.186zm-27.049.492q.761 0 1.432-.023.694-.045 1.544-.112.872-.067 1.499-.09.09.202.023.761-.045.537-.201.537-.291 0-.738.045-.426.045-.94.246-.515.179-.515.47 0 .09.045.179l4.922 12.08q2.282-5.95 3.982-10.156.269-.649.269-1.432 0-.671-.716-1.051-.716-.38-1.88-.38-.156 0-.156-.56t.157-.738q.47.023 1.073.09.604.066 1.164.11.56.024 1.387.024.76 0 1.365-.023.604-.045 1.364-.112.76-.067 1.432-.09.134.202.067.761-.067.537-.201.537-.582 0-1.544.358-.94.358-1.275 1.164-4.788 11.41-6.712 16.152-.09.246-.514.493-.425.268-.65.268-.312 0-.402-.179-1.051-2.483-2.506-6.13-1.454-3.647-2.572-6.31-1.119-2.684-2.215-4.921-.425-.895-2.461-.895-.269-.649 0-1.297.649.023 1.476.089.828.067 1.5.112.693.023 1.498.023zm-13.423-.582q1.454 0 2.461.38 1.007.381 1.656 1.075.648.693 1.006 1.901.38 1.208.515 2.64.134 1.432.134 3.49v4.922q0 2.595.224 3.311.09.313 1.118.515 1.052.201 1.7.201.135.18.135.649.022.47-.134.649-4.587-.224-4.788-.224-.783 0-1.521.045-.716.023-1.656.09-.94.066-1.566.089-.156-.18-.156-.65.022-.469.156-.648.649 0 1.678-.201 1.052-.202 1.141-.515.224-.716.224-3.31v-4.475q0-4.229-.918-5.772-.894-1.566-3.467-1.566-.76 0-1.812.536-1.03.537-1.745 1.12-.694.58-.694.804v9.352q0 2.595.224 3.311.09.313 1.118.515 1.052.201 1.7.201.135.18.135.649.022.47-.134.649-4.587-.224-4.788-.224-.783 0-1.521.045-.716.023-1.656.09-.94.066-1.566.089-.157-.18-.157-.65.023-.469.157-.648.649 0 1.678-.201 1.051-.202 1.14-.515.225-.716.225-3.31v-8.144q0-1.97-.224-2.506-.134-.336-.85-.537t-1.208-.224q-.47-.045-.85-.045-.09-.09-.112-.537 0-.447.112-.626 3.825-.515 6.398-1.88.157 0 .313.27.18.268.18.447-.27 1.879-.27 2.55 0 .18.09.18.045 0 .135-.09.894-.985 2.751-2.126 1.857-1.14 3.289-1.14zm-25.393 17.54q1.097 0 2.484-.716 1.41-.738 1.41-1.118v-6.086q-3.469 1.03-4.162 1.298-1.275.492-2.014 1.387-.716.873-.716 2.103 0 1.253.873 2.193.873.94 2.125.94zm2.417-17.45q1.946 0 3.4 1.79 1.477 1.79 1.477 4.34v9.217q0 2.103 1.387 2.103.201 0 .38-.023.202-.045.336-.09l.268-.134q.157-.09.224-.134.09-.067.157-.134.09-.067.111-.067.18 0 .18.358 0 .47-.224.85-.515.47-1.633 1.096-1.097.604-1.723.604-.94 0-1.723-.895-.783-.917-1.007-2.013-.648.648-2.572 1.834-1.902 1.164-2.931 1.164-2.215 0-3.736-1.477-1.5-1.499-1.5-3.67 0-1.274.694-2.259.716-1.006 1.544-1.32.738-.268 2.685-.94 1.946-.67 3.244-1.14 1.32-.47 1.901-.739.336-.134.425-.335.112-.201.112-.783v-1.208q0-1.589-1.14-2.931-1.12-1.365-2.708-1.365-1.118 0-1.678.694-.537.67-.783 2.08-.38 2.148-2.103 2.148-.671 0-1.096-.582-.425-.581-.425-1.297 0-.18.09-.537.111-.38.223-.537 1.387-1.298 3.67-2.483 2.303-1.186 4.474-1.186zm-18.234-5.459q0-1.79-.224-2.327-.335-.805-2.729-.805-.022 0-.045-.269-.022-.29-.022-.581.022-.291.112-.314 3.087-.313 6.354-1.79.156 0 .313.247.179.224.179.47-.492 1.431-.492 3.892v21.254q0 2.595.223 3.311.09.313 1.119.515 1.051.201 1.7.201.134.18.134.649.023.47-.134.649-4.586-.224-4.787-.224-.783 0-1.522.045-.716.023-1.655.09-.94.066-1.566.089-.157-.18-.157-.65.022-.469.157-.648.648 0 1.678-.201 1.051-.202 1.14-.515.224-.716.224-3.31zM89.037 168.74q-.739-.76-.739-1.767t.739-1.7q.76-.716 1.767-.716t1.7.716q.716.693.716 1.7 0 1.007-.716 1.767-.693.739-1.7.739-1.007 0-1.767-.739zm0-14.855q-.739-.76-.739-1.767t.739-1.7q.76-.716 1.767-.716t1.7.715q.716.694.716 1.7 0 1.008-.716 1.768-.693.738-1.7.738-1.007 0-1.767-.738zM78.924 168.74q-.738-.76-.738-1.767t.738-1.7q.761-.716 1.768-.716 1.007 0 1.7.716.716.693.716 1.7 0 1.007-.716 1.767-.693.739-1.7.739-1.007 0-1.768-.739zm0-14.855q-.738-.76-.738-1.767t.738-1.7q.761-.716 1.768-.716 1.007 0 1.7.715.716.694.716 1.7 0 1.008-.716 1.768-.693.738-1.7.738-1.007 0-1.768-.738zm-19.128-3.915q2.058 0 4.52-.224.044.224.044.671 0 .448-.134.627-1.79 0-1.79.76 0 .157.224.537l2.953 4.699q.358-.582 1.275-1.857.94-1.276 1.41-2.08.492-.806.492-1.21 0-.312-.38-.491-.359-.202-.761-.246-.403-.067-.873-.09-.47-.023-.492-.023-.067-.045-.09-.604 0-.56.09-.694.649.024 1.499.09.85.067 1.521.112.694.023 1.5.023 2.013 0 3.579-.224.044.18.022.738 0 .56-.067.56-2.797.156-3.445.984-.56.783-1.7 2.394-1.142 1.588-1.88 2.595-.716 1.007-.895 1.23l5.37 7.965q1.118 1.61 3.445 1.61.045 0 .045.292.022.29 0 .604-.023.313-.09.402-.582-.023-1.387-.089-.805-.067-1.454-.09-.627-.044-1.365-.044-.85 0-1.61.044-.761.024-1.746.09-.962.067-1.61.09-.09-.224-.09-.761.022-.537.134-.537.649-.045 1.253-.246.626-.202.626-.56 0-.089-.09-.268-2.326-3.803-3.534-5.593-.246.358-1.387 2.036-1.119 1.655-1.835 2.796-.268.425-.268.85 0 .269.179.47.179.18.582.291.425.09.648.134.247.024.806.067.156.024.246.024.045 0 .067.29.022.269 0 .582-.022.313-.112.425-.626-.023-1.41-.09-.782-.066-1.431-.089-.627-.045-1.41-.045-.76 0-1.409.045-.626.023-1.41.09-.782.067-1.387.09-.067-.27-.044-.694.044-.448.134-.604.09-.024.537-.09.447-.067.582-.09.156-.023.559-.089.425-.09.604-.156.201-.09.537-.224.335-.135.537-.269.224-.156.47-.358.246-.223.425-.47 4.161-5.995 4.385-6.309l-5.19-7.74q-.336-.515-1.254-.739-.894-.246-1.745-.246-.044 0-.067-.268 0-.269.023-.582.022-.313.089-.447 2.461.223 4.43.223zm-13.11-5.929q-.649-.648-.649-1.588 0-.94.649-1.589.649-.648 1.588-.648.94 0 1.589.648.648.65.648 1.589 0 .94-.648 1.588-.65.65-1.589.65-.94 0-1.588-.65zm3.646 10.403v9.352q0 2.595.224 3.311.09.313 1.119.515 1.051.201 1.7.201.134.18.134.649.023.47-.134.649-4.586-.224-4.788-.224-.783 0-1.52.045-.717.023-1.656.09-.94.066-1.567.089-.156-.18-.156-.65.022-.469.156-.648.65 0 1.678-.201 1.052-.202 1.141-.515.18-.56.224-3.31v-8.323q0-1.79-.224-2.327-.134-.336-.85-.537t-1.208-.224q-.47-.045-.85-.045-.09-.09-.112-.537 0-.447.112-.626 3.826-.515 6.398-1.88.157 0 .314.27.179.268.179.447-.314 2.192-.314 2.953zM29.392 169.3q-.962 0-3.311-.671-.112-.024-.47-.135-.358-.112-.515-.134-.134-.045-.447-.09-.313-.067-.515-.067-.179 0-.447.045-.268.023-.515.112-.156 0-.38-.38-.201-.403-.201-.604.537-1.186.537-3.311v-20.046q0-1.79-.224-2.327-.336-.805-2.73-.805-.022 0-.044-.269-.022-.29-.022-.581.022-.291.111-.314 3.088-.313 6.354-1.79.157 0 .313.247.18.223.18.47-.493 1.431-.493 3.892v9.016q0 .067.022.202.045.111.09.111.045-.023.156-.067.918-.67 2.618-1.543 1.7-.873 2.797-.873 1.924 0 3.512.85 1.61.85 2.595 2.215 1.007 1.365 1.544 2.953.537 1.589.537 3.155 0 2.17-.85 4.161-.828 1.969-2.282 3.423-1.454 1.432-3.535 2.304-2.058.85-4.385.85zm.716-17.272q-.806 0-1.88.425-1.073.425-1.431.783-.224.224-.224.493v10.873q0 1.364 1.298 2.282 1.297.894 2.863.894t2.953-1.096q1.388-1.118 2.193-2.841.805-1.745.805-3.535 0-3.87-1.79-6.063-1.767-2.215-4.787-2.215zM156.732 51.222v29.34q5.497 0 7.735-2.11 2.237-2.11 6.52-12.273 4.027-9.652 7.223-12.337 3.132-2.62 9.971-2.62h4.22v9.524l-3.133-.064q-4.602 0-5.88 1.342-1.343 1.406-4.092 8.374-2.556 6.648-4.73 9.204-2.173 2.557-6.775 4.667 7.478 1.981 14.574 13.807l12.656 21.03h-12.656l-12.337-21.03q-3.772-6.393-6.584-8.374-2.813-1.982-6.712-1.982v31.386h-11.761V87.72q-3.835 0-6.648 1.982-2.813 1.918-6.584 8.374l-12.337 21.03h-12.656l12.592-21.03q7.16-11.826 14.638-13.807-5.113-2.365-7.159-5.114-2.045-2.813-6.136-13.296-1.406-3.515-3.005-4.346-1.661-.831-4.921-.831-.831 0-3.388.064v-9.524h1.598q6.648 0 9.332.83 2.749.768 4.858 3.388 2.174 2.557 5.625 10.74 4.22 10.035 6.392 12.208 2.238 2.173 7.799 2.173v-29.34zm-111.661 54.91q-6.073 0-11.186-1.998-5.074-1.997-8.95-5.873-4.474-4.474-6.671-10.147-2.157-5.673-2.157-12.904t2.157-12.904q2.197-5.713 6.672-10.188 3.915-3.915 8.949-5.872 5.033-1.998 11.186-1.998 8.15 0 14.302 3.356 2.437-1.039 4.874-1.598 2.917-.68 5.753-.68 8.79 0 12.744 4.395Q86.7 54.116 86.7 63.984v49.539h7.591v4.274H69.32v-4.274h9.27v-49.22q0-8.709-1.878-11.705-1.878-2.996-6.632-2.996-3.516 0-5.274 1.917.64.6 1.239 1.239 7.99 8.51 7.99 22.452 0 7.151-2.197 12.904-2.198 5.673-6.672 10.147-3.955 3.916-8.949 5.913-5.034 1.958-11.146 1.958zm0-4.275q9.788 0 14.782-6.712 4.993-6.751 4.993-19.935 0-13.224-4.993-19.935-4.994-6.752-14.782-6.752-9.828 0-14.822 6.752-4.994 6.711-4.994 19.935 0 13.184 4.994 19.935 4.994 6.712 14.822 6.712z" font-size="19.756" font-family="Amiri" aria-label="bix::lanva" font-weight="400" letter-spacing="0" word-spacing="0" fill="#876917" stroke-width=".265"/></g></svg>