<?xml version="1.0" encoding="UTF-8" standalone="no"?>
<!-- Created with Inkscape (http://www.inkscape.org/) -->

<svg
   xmlns:dc="http://purl.org/dc/elements/1.1/"
   xmlns:cc="http://creativecommons.org/ns#"
   xmlns:rdf="http://www.w3.org/1999/02/22-rdf-syntax-ns#"
   xmlns:svg="http://www.w3.org/2000/svg"
   xmlns="http://www.w3.org/2000/svg"
   xmlns:sodipodi="http://sodipodi.sourceforge.net/DTD/sodipodi-0.dtd"
   xmlns:inkscape="http://www.inkscape.org/namespaces/inkscape"
   width="210mm"
   height="210mm"
   viewBox="0 0 210 210"
   version="1.1"
   id="svg8"
   inkscape:version="0.92.4 (5da689c313, 2019-01-14)"
   sodipodi:docname="Logo_Bixic.svg"
   inkscape:export-filename="D:\ResDev\_Orgs\Brxōdwez_lanva\Bixic-org.github.io\Logo_Bixic.png"
   inkscape:export-xdpi="494.93701"
   inkscape:export-ydpi="494.93701">
  <defs
     id="defs2" />
  <sodipodi:namedview
     id="base"
     pagecolor="#ffffff"
     bordercolor="#666666"
     borderopacity="1.0"
     inkscape:pageopacity="0"
     inkscape:pageshadow="2"
     inkscape:zoom="0.7"
     inkscape:cx="33.824901"
     inkscape:cy="363.85229"
     inkscape:document-units="mm"
     inkscape:current-layer="layer1"
     showgrid="false"
     inkscape:pagecheckerboard="false"
     inkscape:window-width="1842"
     inkscape:window-height="1051"
     inkscape:window-x="1669"
     inkscape:window-y="-9"
     inkscape:window-maximized="1" />
  <metadata
     id="metadata5">
    <rdf:RDF>
      <cc:Work
         rdf:about="">
        <dc:format>image/svg+xml</dc:format>
        <dc:type
           rdf:resource="http://purl.org/dc/dcmitype/StillImage" />
        <dc:title></dc:title>
      </cc:Work>
    </rdf:RDF>
  </metadata>
  <g
     inkscape:label="レイヤー 1"
     inkscape:groupmode="layer"
     id="layer1"
     transform="translate(0,-87)">
    <path
       style="opacity:1;fill:#ffffd5;fill-opacity:1;stroke:none;stroke-width:60.59242249;stroke-linecap:round;stroke-linejoin:round;stroke-miterlimit:4;stroke-dasharray:none;stroke-dashoffset:53.70708847;stroke-opacity:1;paint-order:normal"
       d="M -0.08023012,86.235825 H 211.64043 V 298.3136 H -0.08023012 Z"
       id="rect874"
       inkscape:connector-curvature="0" />
    <g
       aria-label="Ƣ"
       transform="matrix(0.26458333,0,0,0.26458333,19.654762,96.761905)"
       style="font-style:normal;font-weight:normal;font-size:40px;line-height:1.25;font-family:sans-serif;letter-spacing:0px;word-spacing:0px;fill:#000000;fill-opacity:1;stroke:none"
       id="flowRoot815" />
    <flowRoot
       xml:space="preserve"
       id="flowRoot829"
       style="fill:black;fill-opacity:1;stroke:none;font-family:sans-serif;font-style:normal;font-weight:normal;font-size:40px;line-height:1.25;letter-spacing:0px;word-spacing:0px"><flowRegion
         id="flowRegion831"><rect
           id="rect833"
           width="138.57143"
           height="48.57143"
           x="90"
           y="467.98651" /></flowRegion><flowPara
         id="flowPara835"></flowPara></flowRoot>    <g
       aria-label="ж"
       style="font-style:normal;font-weight:normal;font-size:10.58333302px;line-height:1.25;font-family:sans-serif;letter-spacing:0px;word-spacing:0px;fill:#000000;fill-opacity:1;stroke:none;stroke-width:0.26458332"
       id="text839" />
    <g
       aria-label="bix::lanva"
       style="font-style:normal;font-weight:normal;font-size:10.58333302px;line-height:1.25;font-family:sans-serif;letter-spacing:0px;word-spacing:0px;fill:#876917;fill-opacity:1;stroke:none;stroke-width:0.26458332"
       id="text843"
       transform="matrix(2.3192769,0,0,2.3192769,-76.887004,-169.21901)">
      <path
         id="path864"
         style="font-style:normal;font-variant:normal;font-weight:normal;font-stretch:normal;font-size:19.75555611px;font-family:Amiri;-inkscape-font-specification:'Amiri, Normal';font-variant-ligatures:normal;font-variant-caps:normal;font-variant-numeric:normal;font-feature-settings:normal;text-align:start;writing-mode:lr-tb;text-anchor:start;fill:#876917;fill-opacity:1;stroke-width:0.26458332"
         d="m 110.36735,182.44793 q 0.47266,0 1.07073,-0.30868 0.60772,-0.31833 0.60772,-0.48231 v -2.62379 q -1.49517,0.44373 -1.79421,0.55948 -0.54984,0.21222 -0.86816,0.59807 -0.30868,0.37621 -0.30868,0.90675 0,0.54019 0.3762,0.94534 0.37621,0.40514 0.9164,0.40514 z m 1.04179,-7.52409 q 0.83923,0 1.46624,0.7717 0.63665,0.7717 0.63665,1.87138 v 3.97426 q 0,0.90675 0.59807,0.90675 0.0868,0 0.16399,-0.01 0.0868,-0.0193 0.14469,-0.0386 0.0579,-0.0289 0.11575,-0.0579 0.0675,-0.0386 0.0965,-0.0579 0.0386,-0.0289 0.0675,-0.0579 0.0386,-0.0289 0.0482,-0.0289 0.0772,0 0.0772,0.15434 0,0.20257 -0.0965,0.36656 -0.22186,0.20257 -0.70418,0.47266 -0.47266,0.26045 -0.74276,0.26045 -0.40514,0 -0.74276,-0.38585 -0.33762,-0.3955 -0.43408,-0.86816 -0.27975,0.27974 -1.10933,0.79099 -0.81993,0.50161 -1.26366,0.50161 -0.95498,0 -1.61092,-0.63666 -0.6463,-0.6463 -0.6463,-1.58198 0,-0.54984 0.29903,-0.97428 0.30868,-0.43408 0.66559,-0.56913 0.31833,-0.11575 1.15756,-0.40514 0.83922,-0.28939 1.3987,-0.49196 0.56913,-0.20257 0.81994,-0.31833 0.14469,-0.0579 0.18328,-0.14469 0.0482,-0.0868 0.0482,-0.33762 v -0.5209 q 0,-0.68488 -0.49196,-1.26366 -0.48232,-0.58842 -1.1672,-0.58842 -0.48231,0 -0.72347,0.29903 -0.23151,0.28939 -0.33762,0.8971 -0.16399,0.92605 -0.90675,0.92605 -0.28939,0 -0.47267,-0.25081 -0.18328,-0.2508 -0.18328,-0.55948 0,-0.0772 0.0386,-0.23151 0.0482,-0.16399 0.0965,-0.23151 0.59807,-0.55948 1.58199,-1.07074 0.99357,-0.51125 1.92925,-0.51125 z m -11.66233,0.21222 q 0.32797,0 0.61736,-0.01 0.29903,-0.0193 0.66559,-0.0482 0.3762,-0.0289 0.6463,-0.0386 0.0386,0.0868 0.01,0.32797 -0.0193,0.23151 -0.0868,0.23151 -0.1254,0 -0.31833,0.0193 -0.18328,0.0193 -0.40514,0.10611 -0.22187,0.0772 -0.22187,0.20257 0,0.0386 0.0193,0.0772 l 2.12218,5.20899 q 0.98392,-2.56591 1.71703,-4.37941 0.11576,-0.27974 0.11576,-0.61736 0,-0.28939 -0.30868,-0.45337 -0.30868,-0.16399 -0.81029,-0.16399 -0.0675,0 -0.0675,-0.24116 0,-0.24115 0.0675,-0.31832 0.20257,0.01 0.46302,0.0386 0.26045,0.0289 0.50161,0.0482 0.24115,0.01 0.59807,0.01 0.32797,0 0.58842,-0.01 0.26045,-0.0193 0.58842,-0.0482 0.32797,-0.0289 0.61736,-0.0386 0.0579,0.0868 0.0289,0.32797 -0.0289,0.23151 -0.0868,0.23151 -0.2508,0 -0.66559,0.15434 -0.40514,0.15434 -0.54984,0.50161 -2.0643,4.91959 -2.89388,6.9646 -0.0386,0.10611 -0.22186,0.21222 -0.18328,0.11575 -0.27974,0.11575 -0.13505,0 -0.17364,-0.0772 -0.45337,-1.07073 -1.08038,-2.64307 -0.627,-1.57234 -1.10932,-2.72025 -0.482311,-1.15755 -0.954979,-2.12218 -0.183279,-0.38585 -1.061089,-0.38585 -0.115755,-0.27974 0,-0.55948 0.279742,0.01 0.636654,0.0386 0.356912,0.0289 0.6463,0.0482 0.299034,0.01 0.646304,0.01 z m -5.787766,-0.2508 q 0.627007,0 1.061089,0.16398 0.434082,0.16399 0.713824,0.46302 0.279742,0.29904 0.434082,0.81994 0.163986,0.52089 0.221864,1.13826 0.05788,0.61736 0.05788,1.50481 v 2.12218 q 0,1.11897 0.09646,1.42765 0.03858,0.13505 0.482314,0.22186 0.453374,0.0868 0.733116,0.0868 0.05788,0.0772 0.05788,0.27974 0.0096,0.20257 -0.05788,0.27974 -1.977485,-0.0965 -2.064301,-0.0965 -0.33762,0 -0.655946,0.0193 -0.308681,0.01 -0.713824,0.0386 -0.405144,0.0289 -0.675239,0.0386 -0.06752,-0.0772 -0.06752,-0.27974 0.0096,-0.20257 0.06752,-0.27974 0.279742,0 0.72347,-0.0868 0.453375,-0.0868 0.49196,-0.22186 0.09646,-0.30868 0.09646,-1.42765 v -1.92925 q 0,-1.82315 -0.395497,-2.48874 -0.38585,-0.67524 -1.495171,-0.67524 -0.327973,0 -0.781348,0.23151 -0.443728,0.23151 -0.752409,0.48232 -0.299034,0.2508 -0.299034,0.34726 v 4.03214 q 0,1.11897 0.09646,1.42765 0.03858,0.13505 0.482313,0.22186 0.453375,0.0868 0.733116,0.0868 0.05788,0.0772 0.05788,0.27974 0.0096,0.20257 -0.05788,0.27974 -1.977484,-0.0965 -2.064301,-0.0965 -0.337619,0 -0.655946,0.0193 -0.308681,0.01 -0.713824,0.0386 -0.405143,0.0289 -0.675239,0.0386 -0.06752,-0.0772 -0.06752,-0.27974 0.0096,-0.20257 0.06752,-0.27974 0.279742,0 0.723471,-0.0868 0.453374,-0.0868 0.491959,-0.22186 0.09646,-0.30868 0.09646,-1.42765 v -3.51124 q 0,-0.84887 -0.09646,-1.08038 -0.05788,-0.14469 -0.366558,-0.23151 -0.308681,-0.0868 -0.520898,-0.0965 -0.202572,-0.0193 -0.366559,-0.0193 -0.03858,-0.0386 -0.04823,-0.23151 0,-0.19292 0.04823,-0.27009 1.649512,-0.22187 2.758833,-0.81029 0.06752,0 0.135048,0.11576 0.07717,0.11575 0.07717,0.19292 -0.115755,0.81029 -0.115755,1.09968 0,0.0772 0.03859,0.0772 0.01929,0 0.05788,-0.0386 0.385851,-0.42443 1.186491,-0.91639 0.80064,-0.49196 1.418002,-0.49196 z m -10.948516,7.56267 q 0.472667,0 1.070735,-0.30868 0.607715,-0.31833 0.607715,-0.48231 v -2.62379 q -1.495171,0.44373 -1.794205,0.55948 -0.549838,0.21222 -0.868165,0.59807 -0.30868,0.37621 -0.30868,0.90675 0,0.54019 0.376204,0.94534 0.376205,0.40514 0.916396,0.40514 z m 1.041797,-7.52409 q 0.839225,0 1.466232,0.7717 0.636654,0.7717 0.636654,1.87138 v 3.97426 q 0,0.90675 0.598069,0.90675 0.08682,0 0.163986,-0.01 0.08682,-0.0193 0.144694,-0.0386 0.05788,-0.0289 0.115755,-0.0579 0.06752,-0.0386 0.09646,-0.0579 0.03858,-0.0289 0.06752,-0.0579 0.03859,-0.0289 0.04823,-0.0289 0.07717,0 0.07717,0.15434 0,0.20257 -0.09646,0.36656 -0.221864,0.20257 -0.704178,0.47266 -0.472667,0.26045 -0.742762,0.26045 -0.405144,0 -0.742763,-0.38585 -0.337619,-0.3955 -0.434082,-0.86816 -0.279742,0.27974 -1.109321,0.79099 -0.819933,0.50161 -1.263661,0.50161 -0.95498,0 -1.610927,-0.63666 -0.6463,-0.6463 -0.6463,-1.58198 0,-0.54984 0.299035,-0.97428 0.30868,-0.43408 0.665592,-0.56913 0.318327,-0.11575 1.157552,-0.40514 0.839226,-0.28939 1.398709,-0.49196 0.56913,-0.20257 0.819933,-0.31833 0.144694,-0.0579 0.183279,-0.14469 0.04823,-0.0868 0.04823,-0.33762 v -0.5209 q 0,-0.68488 -0.491959,-1.26366 -0.482314,-0.58842 -1.167199,-0.58842 -0.482313,0 -0.72347,0.29903 -0.23151,0.28939 -0.337619,0.8971 -0.163987,0.92605 -0.906749,0.92605 -0.289388,0 -0.472667,-0.25081 -0.18328,-0.2508 -0.18328,-0.55948 0,-0.0772 0.03859,-0.23151 0.04823,-0.16399 0.09646,-0.23151 0.598069,-0.55948 1.581988,-1.07074 0.993566,-0.51125 1.929254,-0.51125 z m -7.861708,-2.35369 q 0,-0.7717 -0.09646,-1.00321 -0.144694,-0.34727 -1.176844,-0.34727 -0.0096,0 -0.01929,-0.11575 -0.0096,-0.1254 -0.0096,-0.2508 0.0096,-0.12541 0.04823,-0.13505 1.331185,-0.13505 2.73954,-0.7717 0.06752,0 0.135048,0.10611 0.07717,0.0965 0.07717,0.20257 -0.212218,0.61736 -0.212218,1.67845 v 9.16395 q 0,1.11897 0.09646,1.42765 0.03858,0.13505 0.482313,0.22186 0.453375,0.0868 0.733117,0.0868 0.05788,0.0772 0.05788,0.27974 0.0096,0.20257 -0.05788,0.27974 -1.977485,-0.0965 -2.064302,-0.0965 -0.337619,0 -0.655946,0.0193 -0.30868,0.01 -0.713824,0.0386 -0.405143,0.0289 -0.675238,0.0386 -0.06752,-0.0772 -0.06752,-0.27974 0.0096,-0.20257 0.06752,-0.27974 0.279741,0 0.72347,-0.0868 0.453374,-0.0868 0.491959,-0.22186 0.09646,-0.30868 0.09646,-1.42765 z m -4.649499,10.65913 q -0.318327,-0.32798 -0.318327,-0.76206 0,-0.43408 0.318327,-0.73311 0.327973,-0.30868 0.762055,-0.30868 0.434082,0 0.733116,0.30868 0.308681,0.29903 0.308681,0.73311 0,0.43408 -0.308681,0.76206 -0.299034,0.31832 -0.733116,0.31832 -0.434082,0 -0.762055,-0.31832 z m 0,-6.40512 q -0.318327,-0.32798 -0.318327,-0.76206 0,-0.43408 0.318327,-0.73312 0.327973,-0.30868 0.762055,-0.30868 0.434082,0 0.733116,0.30868 0.308681,0.29904 0.308681,0.73312 0,0.43408 -0.308681,0.76206 -0.299034,0.31832 -0.733116,0.31832 -0.434082,0 -0.762055,-0.31832 z m -4.360115,6.40512 q -0.318327,-0.32798 -0.318327,-0.76206 0,-0.43408 0.318327,-0.73311 0.327973,-0.30868 0.762055,-0.30868 0.434082,0 0.733116,0.30868 0.308681,0.29903 0.308681,0.73311 0,0.43408 -0.308681,0.76206 -0.299034,0.31832 -0.733116,0.31832 -0.434082,0 -0.762055,-0.31832 z m 0,-6.40512 q -0.318327,-0.32798 -0.318327,-0.76206 0,-0.43408 0.318327,-0.73312 0.327973,-0.30868 0.762055,-0.30868 0.434082,0 0.733116,0.30868 0.308681,0.29904 0.308681,0.73312 0,0.43408 -0.308681,0.76206 -0.299034,0.31832 -0.733116,0.31832 -0.434082,0 -0.762055,-0.31832 z m -8.247558,-1.6881 q 0.887457,0 1.948546,-0.0965 0.01929,0.0965 0.01929,0.28938 0,0.19293 -0.05788,0.2701 -0.771701,0 -0.771701,0.32797 0,0.0675 0.09646,0.23151 l 1.273308,2.02572 q 0.15434,-0.2508 0.549837,-0.80064 0.405143,-0.54984 0.607715,-0.8971 0.212218,-0.34727 0.212218,-0.5209 0,-0.13505 -0.163987,-0.21222 -0.15434,-0.0868 -0.327973,-0.10611 -0.173633,-0.0289 -0.376205,-0.0386 -0.202571,-0.01 -0.212217,-0.01 -0.02894,-0.0193 -0.03859,-0.26045 0,-0.24116 0.03859,-0.29903 0.279741,0.01 0.6463,0.0386 0.366558,0.0289 0.655946,0.0482 0.299034,0.01 0.6463,0.01 0.868164,0 1.543402,-0.0965 0.01929,0.0772 0.0096,0.31832 0,0.24116 -0.02894,0.24116 -1.205784,0.0675 -1.485525,0.42444 -0.241157,0.33762 -0.733117,1.03215 -0.491959,0.68488 -0.810286,1.11896 -0.308681,0.43409 -0.385851,0.53055 l 2.315104,3.43407 q 0.482314,0.69453 1.485526,0.69453 0.01929,0 0.01929,0.1254 0.0096,0.1254 0,0.26045 -0.0096,0.13505 -0.03859,0.17363 -0.250803,-0.01 -0.598068,-0.0386 -0.347266,-0.0289 -0.627008,-0.0386 -0.270095,-0.0193 -0.588422,-0.0193 -0.366558,0 -0.694531,0.0193 -0.327974,0.01 -0.752409,0.0386 -0.41479,0.0289 -0.694532,0.0386 -0.03858,-0.0965 -0.03858,-0.32797 0.0096,-0.23151 0.05788,-0.23151 0.279742,-0.0193 0.540191,-0.10611 0.270095,-0.0868 0.270095,-0.24115 0,-0.0386 -0.03858,-0.11576 -1.003212,-1.63987 -1.52411,-2.41157 -0.106109,0.15434 -0.598069,0.87781 -0.482313,0.71383 -0.790994,1.20579 -0.115755,0.18328 -0.115755,0.36655 0,0.11576 0.07717,0.20258 0.07717,0.0772 0.250803,0.1254 0.183279,0.0386 0.279742,0.0579 0.106109,0.01 0.347266,0.0289 0.06752,0.01 0.106109,0.01 0.01929,0 0.02894,0.1254 0.0096,0.11576 0,0.25081 -0.0096,0.13504 -0.04823,0.18327 -0.270095,-0.01 -0.607715,-0.0386 -0.337619,-0.0289 -0.617361,-0.0386 -0.270095,-0.0193 -0.607715,-0.0193 -0.327973,0 -0.607715,0.0193 -0.270095,0.01 -0.607714,0.0386 -0.33762,0.0289 -0.598069,0.0386 -0.02894,-0.11575 -0.01929,-0.29903 0.01929,-0.19293 0.05788,-0.26045 0.03858,-0.01 0.231511,-0.0386 0.192925,-0.0289 0.250802,-0.0386 0.06752,-0.01 0.241157,-0.0386 0.183279,-0.0386 0.260449,-0.0675 0.08682,-0.0386 0.231511,-0.0965 0.144694,-0.0579 0.23151,-0.11576 0.09646,-0.0675 0.202572,-0.15434 0.106109,-0.0965 0.183279,-0.20257 1.794206,-2.5852 1.890668,-2.72025 l -2.237934,-3.3376 q -0.144694,-0.22187 -0.540191,-0.31833 -0.38585,-0.10611 -0.752409,-0.10611 -0.01929,0 -0.02894,-0.11576 0,-0.11575 0.0096,-0.2508 0.0096,-0.13505 0.03858,-0.19292 1.061089,0.0965 1.909961,0.0965 z m -5.652713,-2.55626 q -0.279741,-0.27974 -0.279741,-0.68489 0,-0.40514 0.279741,-0.68488 0.279742,-0.27974 0.684885,-0.27974 0.405144,0 0.684885,0.27974 0.279742,0.27974 0.279742,0.68488 0,0.40515 -0.279742,0.68489 -0.279741,0.27974 -0.684885,0.27974 -0.405143,0 -0.684885,-0.27974 z m 1.572342,4.48551 v 4.03214 q 0,1.11897 0.09646,1.42765 0.03858,0.13505 0.482313,0.22186 0.453375,0.0868 0.733116,0.0868 0.05788,0.0772 0.05788,0.27974 0.0096,0.20257 -0.05788,0.27974 -1.977485,-0.0965 -2.064301,-0.0965 -0.337619,0 -0.655946,0.0193 -0.308681,0.01 -0.713824,0.0386 -0.405143,0.0289 -0.675239,0.0386 -0.06752,-0.0772 -0.06752,-0.27974 0.0096,-0.20257 0.06752,-0.27974 0.279742,0 0.72347,-0.0868 0.453375,-0.0868 0.49196,-0.22186 0.07717,-0.24116 0.09646,-1.42765 v -3.58841 q 0,-0.7717 -0.09646,-1.00321 -0.05788,-0.14469 -0.366558,-0.23151 -0.308681,-0.0868 -0.520899,-0.0965 -0.202571,-0.0193 -0.366558,-0.0193 -0.03858,-0.0386 -0.04823,-0.23151 0,-0.19292 0.04823,-0.27009 1.649512,-0.22187 2.758833,-0.81029 0.06752,0 0.135048,0.11576 0.07717,0.11575 0.07717,0.19292 -0.135048,0.94534 -0.135048,1.27331 z m -9.028906,6.40512 q -0.41479,0 -1.427648,-0.28938 -0.04823,-0.01 -0.202571,-0.0579 -0.154341,-0.0482 -0.221865,-0.0579 -0.05788,-0.0193 -0.192925,-0.0386 -0.135048,-0.0289 -0.221864,-0.0289 -0.07717,0 -0.192926,0.0193 -0.115755,0.01 -0.221864,0.0482 -0.06752,0 -0.163986,-0.16399 -0.08682,-0.17363 -0.08682,-0.26044 0.231511,-0.51126 0.231511,-1.42765 v -8.64306 q 0,-0.7717 -0.09646,-1.00321 -0.144694,-0.34727 -1.176845,-0.34727 -0.0096,0 -0.01929,-0.11575 -0.0096,-0.1254 -0.0096,-0.2508 0.0096,-0.12541 0.04823,-0.13505 1.331185,-0.13505 2.73954,-0.7717 0.06752,0 0.135048,0.10611 0.07717,0.0965 0.07717,0.20257 -0.212218,0.61736 -0.212218,1.67845 v 3.80063 q 0,0.0579 0,0.0868 0,0.0289 0.0096,0.0868 0.01929,0.0482 0.03858,0.0482 0.01929,-0.01 0.06752,-0.0289 0.395497,-0.28938 1.128614,-0.66559 0.733116,-0.3762 1.205783,-0.3762 0.829579,0 1.514464,0.36655 0.694531,0.36656 1.118967,0.95498 0.434082,0.58843 0.665593,1.27331 0.23151,0.68489 0.23151,1.36013 0,0.93568 -0.366558,1.7942 -0.356912,0.84887 -0.98392,1.47588 -0.627007,0.61736 -1.52411,0.99357 -0.887456,0.36655 -1.890668,0.36655 z m 0.30868,-7.44691 q -0.347265,0 -0.810286,0.18327 -0.463021,0.18328 -0.617361,0.33762 -0.09646,0.0965 -0.09646,0.21222 v 4.68809 q 0,0.58842 0.559484,0.98392 0.559483,0.38585 1.234722,0.38585 0.675239,0 1.273307,-0.47267 0.598069,-0.48231 0.945334,-1.22507 0.347266,-0.75241 0.347266,-1.52412 0,-1.6688 -0.771701,-2.61413 -0.762056,-0.95498 -2.064302,-0.95498 z m 54.596502,-43.46471 v 12.65039 q 2.37022,0 3.33485,-0.90951 0.96463,-0.9095 2.8112,-5.29166 1.73633,-4.16168 3.11436,-5.31923 1.35048,-1.12999 4.29948,-1.12999 h 1.81901 v 4.10655 l -1.35047,-0.0276 q -1.98438,0 -2.53559,0.57878 -0.57878,0.60633 -1.76389,3.61046 -1.10243,2.86631 -2.0395,3.96875 -0.93706,1.10243 -2.92144,2.01193 3.22461,0.85438 6.28385,5.95313 l 5.45704,9.06749 h -5.45704 l -5.31922,-9.06749 q -1.62609,-2.75608 -2.83876,-3.61046 -1.21268,-0.85439 -2.89388,-0.85439 v 13.53234 h -5.071182 v -13.53234 q -1.653646,0 -2.866319,0.85439 -1.212674,0.82682 -2.838759,3.61046 l -5.319227,9.06749 h -5.457031 l 5.42947,-9.06749 q 3.086805,-5.09875 6.311415,-5.95313 -2.204861,-1.01975 -3.086806,-2.20486 -0.881944,-1.21267 -2.645833,-5.73264 -0.606337,-1.51584 -1.295356,-1.87413 -0.71658,-0.35829 -2.122179,-0.35829 -0.35829,0 -1.46072,0.0276 v -4.10655 h 0.689019 q 2.866319,0 4.023871,0.35829 1.185113,0.33073 2.094618,1.46072 0.937066,1.10243 2.425348,4.63021 1.81901,4.32704 2.756076,5.2641 0.964627,0.93707 3.362413,0.93707 v -12.65039 z m -48.14494,23.67553 q -2.618272,0 -4.823132,-0.86128 -2.187637,-0.86127 -3.858508,-2.53214 -1.929253,-1.92925 -2.876655,-4.37527 -0.930175,-2.44602 -0.930175,-5.56383 0,-3.11781 0.930175,-5.56383 0.947402,-2.46324 2.876655,-4.3925 1.688097,-1.68809 3.858508,-2.53214 2.170408,-0.86127 4.823132,-0.86127 3.513997,0 6.16672,1.44694 1.050756,-0.44787 2.101509,-0.68902 1.257461,-0.29284 2.480468,-0.29284 3.789606,0 5.494928,1.89481 1.705321,1.8948 1.705321,6.14949 v 21.35959 h 3.272841 v 1.84313 H 63.040274 v -1.84313 h 3.996312 v -21.22179 q 0,-3.75515 -0.809599,-5.04706 -0.809598,-1.29191 -2.859428,-1.29191 -1.515843,0 -2.273763,0.82682 0.275608,0.25838 0.53399,0.53399 3.445094,3.66903 3.445094,9.68072 0,3.08336 -0.947401,5.56383 -0.947402,2.44602 -2.876653,4.37527 -1.705325,1.6881 -3.858509,2.54937 -2.170409,0.84405 -4.805907,0.84405 z m 0,-1.84313 q 4.220241,0 6.373426,-2.89388 2.153184,-2.9111 2.153184,-8.59551 0,-5.70163 -2.153184,-8.59551 -2.153185,-2.91111 -6.373426,-2.91111 -4.237467,0 -6.390651,2.91111 -2.153185,2.89388 -2.153185,8.59551 0,5.68441 2.153185,8.59551 2.153184,2.89388 6.390651,2.89388 z"
         inkscape:connector-curvature="0" />
    </g>
  </g>
</svg>
