<?xml version="1.0" encoding="UTF-8" standalone="no"?>
<svg
   xmlns="http://www.w3.org/2000/svg"
   height="318.98901"
   width="257.84"
   y="900"
   x="911.85063"
   viewBox="0 0 257.84 318.98901"
   >
  <style type="text/css">
    /* 紋章基本色銀 */
    .argent{fill:#ffffff;}
    /* 紋章基本色金 */
    .or{fill:#dab300;}
    /* 紋章基本色赤 */
    /* 首長家の林檎の実色 */
    .gules{fill:#d22630;}
    /* 紋章基本色緑 */
    /* 首長家の林檎の葉色 */
    .vert{fill:#00843d;}
    /* 紋章基本色黒 */
    .sable{fill:black;}
  /* 枠色：宰相家たる碧雲氏を表す碧色 */
    .grue{fill:#42bcac;}
    /* 民族の起源を象徴する天空を表す水色 */
    .sky1{fill:#00a2e8;}
    .sky2{fill:#009bc9;}
    /* 豊かな自然を象徴する草原を表す黄緑色 */
    .prairie{fill:#1eb53a;}
    /* 山岳の石肌を表す薄褐色 */
    .mountain{fill:#fffed5;}
    /* 豊かな食糧を象徴する牧畜の肉を表す褐赤色 */
    .meats{fill:#6c2735;}
    /* 革新性を象徴する藍色 */
    .indigo{fill:#005197;}
  </style>
  
  <g>
    <path
       class="argent"
       d="M 252.479,0 H 244.376 128.917 13.461 5.358 L 4.511,8.059 C 4.327,9.811 0,52.03 0,144.749 c 0,43.563 14.726,81.996 43.77,114.23 20.349,22.585 46.923,41.599 81.242,58.129 l 3.905,1.881 3.906,-1.881 c 34.32,-16.53 60.896,-35.544 81.246,-58.129 29.044,-32.234 43.771,-70.667 43.771,-114.23 0,-92.718 -4.328,-134.938 -4.512,-136.69 z"/>
    <path
       d="M 13.460938 9 C 13.460937 9 9 51.435047 9 144.74805 C 9 195.89867 30.208761 233.18327 57.5 260.34961 L 57.5 9 L 13.460938 9 z M 200.09961 9 L 200.09961 260.58398 C 227.50613 233.39771 248.83984 196.04692 248.83984 144.74805 C 248.83984 51.436047 244.37695 9 244.37695 9 L 200.09961 9 z M 128.50781 308.79883 C 128.64311 308.8642 128.78298 308.93498 128.91797 309 C 129.05301 308.93496 129.19277 308.86422 129.32812 308.79883 L 128.50781 308.79883 z "
       class="gules" />
    <path
       d="m 57.501949,9 v 251.35352 c 22.360275,22.2573 48.799021,37.71654 71.009761,48.44726 h 0.8125 c 22.13396,-10.69276 48.46477,-26.08218 70.7754,-48.21289 V 9 h -71.18165 z"
        class="sky1"/>
  </g>
  <g
     transform="scale(1.7) translate(-56,-27)">
    <path
       d="m 131.89,63.175 c 0.148,0 0.294,0.005 0.44,0.007 v 35.68 c -0.146,-0.003 -0.292,-0.006 -0.44,-0.006 -0.146,0 -0.293,0.003 -0.44,0.006 v -35.68 c 0.147,-0.002 0.294,-0.007 0.44,-0.007 z m 2.08,0.06 c 0.293,0.018 0.585,0.04 0.876,0.064 l -1.48,35.607 a 23.116,23.116 0 0 0 -0.878,-0.042 z m 2.506,0.238 c 0.292,0.038 0.584,0.078 0.874,0.123 l -2.951,35.399 c -0.29,-0.032 -0.583,-0.058 -0.877,-0.079 z m 2.487,0.41 c 0.288,0.058 0.576,0.12 0.862,0.186 l -4.398,35.063 a 23.572,23.572 0 0 0 -0.87,-0.118 z m 2.447,0.586 c 0.285,0.079 0.57,0.16 0.852,0.245 l -5.812,34.603 a 23.385,23.385 0 0 0 -0.867,-0.16 z m 2.403,0.754 c 0.28,0.098 0.557,0.2 0.834,0.305 l -7.185,34.02 c -0.283,-0.072 -0.57,-0.139 -0.857,-0.2 z m 5.06,2.22 c 0.265,0.14 0.53,0.284 0.791,0.43 l -10.013,32.347 c -0.276,-0.1 -0.555,-0.195 -0.836,-0.285 z m 2.178,1.247 c 0.257,0.158 0.511,0.32 0.765,0.484 l -11.193,31.421 a 23.112,23.112 0 0 0 -0.822,-0.32 z m 2.09,1.379 c 0.248,0.175 0.495,0.352 0.739,0.533 l -12.301,30.417 a 22.505,22.505 0 0 0 -0.809,-0.36 z m 1.994,1.504 c 0.238,0.192 0.475,0.386 0.71,0.583 l -13.329,29.33 a 23.844,23.844 0 0 0 -0.793,-0.4 z m 1.894,1.613 c 0.23,0.206 0.455,0.417 0.68,0.629 l -14.277,28.18 a 23,23 0 0 0 -0.776,-0.436 z m 1.79,1.72 c 0.217,0.22 0.431,0.441 0.644,0.666 l -15.137,26.972 c -0.248,-0.161 -0.5,-0.317 -0.755,-0.468 z m 1.68,1.805 c 0.205,0.234 0.408,0.47 0.609,0.708 l -15.91,25.714 a 24.668,24.668 0 0 0 -0.736,-0.501 z m 1.57,1.883 c 0.194,0.245 0.385,0.494 0.573,0.744 l -16.599,24.426 a 22.19,22.19 0 0 0 -0.715,-0.536 z m 1.456,1.956 c 0.18,0.256 0.36,0.514 0.536,0.775 l -17.2,23.106 a 24.301,24.301 0 0 0 -0.69,-0.567 z m 2.335,3.656 c 0.158,0.274 0.314,0.549 0.467,0.827 l -18.064,20.691 a 23.252,23.252 0 0 0 -0.647,-0.62 z m 1.137,2.09 c 0.146,0.283 0.289,0.568 0.43,0.855 l -18.428,19.342 a 25.06,25.06 0 0 0 -0.622,-0.653 z m 1.027,2.124 c 0.132,0.29 0.26,0.582 0.388,0.875 L 149.7,107.291 a 24.27,24.27 0 0 0 -0.59,-0.679 z m 0.915,2.145 c 0.12,0.297 0.236,0.597 0.35,0.897 l -18.918,16.66 a 25.937,25.937 0 0 0 -0.565,-0.706 z m 0.808,2.161 c 0.106,0.303 0.207,0.608 0.308,0.914 l -19.05,15.343 a 23.99,23.99 0 0 0 -0.536,-0.73 z m 0.701,2.17 c 0.092,0.308 0.181,0.617 0.267,0.928 l -19.112,14.046 a 25.953,25.953 0 0 0 -0.505,-0.752 z m 0.599,2.172 c 0.078,0.312 0.154,0.626 0.227,0.94 l -19.11,12.778 c -0.153,-0.262 -0.31,-0.52 -0.472,-0.775 z m 0.75,3.46 c 0.059,0.318 0.112,0.636 0.165,0.955 l -18.982,10.818 a 25.206,25.206 0 0 0 -0.419,-0.81 z m 0.345,2.147 c 0.045,0.32 0.086,0.642 0.126,0.964 l -18.83,9.639 a 25.11,25.11 0 0 0 -0.385,-0.83 z m 0.256,2.131 c 0.032,0.32 0.061,0.642 0.088,0.965 l -18.63,8.503 a 24.79,24.79 0 0 0 -0.35,-0.845 z m 0.17,2.108 c 0.02,0.32 0.038,0.642 0.052,0.964 l -18.39,7.409 a 23.807,23.807 0 0 0 -0.314,-0.858 z m 0.089,2.079 c 0.008,0.321 0.01,0.644 0.011,0.967 l -18.105,6.359 a 25.958,25.958 0 0 0 -0.28,-0.874 z m 0.006,2.05 c -0.005,0.324 -0.012,0.646 -0.023,0.968 l -17.788,5.354 a 25.986,25.986 0 0 0 -0.242,-0.888 z m -0.065,2.022 c -0.017,0.32 -0.034,0.64 -0.056,0.96 l -17.446,4.396 c -0.063,-0.3 -0.13,-0.599 -0.202,-0.895 z m -0.297,3.547 a 56.42,56.42 0 0 1 -0.118,0.952 l -16.759,2.786 c -0.04,-0.305 -0.084,-0.609 -0.135,-0.91 z m -0.258,1.918 c -0.048,0.317 -0.1,0.632 -0.155,0.947 l -16.344,1.954 a 26.15,26.15 0 0 0 -0.098,-0.917 z m -0.325,1.88 c -0.06,0.314 -0.122,0.627 -0.188,0.939 l -15.91,1.167 a 26.328,26.328 0 0 0 -0.062,-0.92 z m -0.384,1.841 c -0.07,0.31 -0.142,0.62 -0.218,0.927 l -15.468,0.425 c -0.003,-0.308 -0.01,-0.615 -0.022,-0.92 z m -0.442,1.799 c -0.081,0.307 -0.166,0.612 -0.253,0.916 l -15.005,-0.275 c 0.01,-0.297 0.017,-0.595 0.017,-0.895 v -0.025 z m -77.752,0.916 c -0.087,-0.304 -0.171,-0.61 -0.253,-0.916 l 15.241,-0.28 v 0.026 c 0,0.3 0.007,0.597 0.017,0.895 z m -0.477,-1.788 a 52.309,52.309 0 0 1 -0.219,-0.927 l 15.71,0.432 a 23.39,23.39 0 0 0 -0.023,0.92 z m -0.415,-1.83 a 53.274,53.274 0 0 1 -0.187,-0.938 l 16.16,1.187 c -0.025,0.305 -0.047,0.611 -0.062,0.92 z m -0.357,-1.871 c -0.054,-0.315 -0.107,-0.63 -0.155,-0.947 l 16.597,1.985 c -0.038,0.303 -0.07,0.61 -0.098,0.917 z m -0.295,-1.913 a 56.088,56.088 0 0 1 -0.118,-0.952 l 17.012,2.828 c -0.05,0.302 -0.094,0.605 -0.134,0.91 z m -0.359,-3.54 c -0.022,-0.32 -0.04,-0.64 -0.056,-0.96 l 17.705,4.461 c -0.073,0.296 -0.14,0.595 -0.203,0.896 z m -0.099,-2.013 a 54.284,54.284 0 0 1 -0.022,-0.967 l 18.053,5.433 c -0.085,0.294 -0.166,0.59 -0.241,0.888 z m -0.027,-2.05 c 10e-4,-0.324 0.004,-0.647 0.011,-0.968 l 18.373,6.453 c -0.098,0.289 -0.191,0.58 -0.28,0.873 z m 0.048,-2.083 c 0.014,-0.322 0.033,-0.644 0.052,-0.964 l 18.653,7.515 c -0.11,0.284 -0.216,0.57 -0.316,0.858 z m 0.134,-2.107 c 0.026,-0.323 0.056,-0.644 0.088,-0.965 l 18.893,8.623 c -0.121,0.279 -0.238,0.56 -0.35,0.845 z m 0.218,-2.132 c 0.039,-0.322 0.08,-0.643 0.126,-0.963 l 19.089,9.772 c -0.133,0.274 -0.261,0.551 -0.385,0.83 z m 0.306,-2.156 c 0.053,-0.319 0.107,-0.637 0.165,-0.954 l 19.237,10.963 a 25.22,25.22 0 0 0 -0.42,0.81 z m 0.688,-3.476 c 0.074,-0.314 0.149,-0.628 0.228,-0.94 l 19.355,12.943 a 27.63,27.63 0 0 0 -0.472,0.776 z m 0.559,-2.184 c 0.086,-0.31 0.175,-0.62 0.267,-0.927 l 19.35,14.222 a 24.64,24.64 0 0 0 -0.505,0.752 z m 0.66,-2.183 c 0.1,-0.306 0.203,-0.611 0.308,-0.914 l 19.278,15.526 c -0.183,0.24 -0.36,0.484 -0.535,0.73 z m 0.767,-2.179 c 0.114,-0.3 0.23,-0.6 0.349,-0.897 l 19.134,16.852 c -0.192,0.232 -0.38,0.468 -0.565,0.707 z m 0.877,-2.167 c 0.126,-0.293 0.256,-0.585 0.387,-0.875 l 18.916,18.193 c -0.201,0.222 -0.398,0.45 -0.591,0.679 z m 0.985,-2.144 c 0.14,-0.286 0.284,-0.572 0.43,-0.855 l 18.62,19.544 c -0.211,0.214 -0.418,0.432 -0.622,0.653 z m 1.1,-2.119 c 0.153,-0.277 0.309,-0.553 0.467,-0.826 l 18.244,20.898 c -0.219,0.203 -0.435,0.41 -0.646,0.62 z m 2.265,-3.706 c 0.177,-0.261 0.356,-0.519 0.536,-0.775 l 17.354,23.314 c -0.233,0.185 -0.463,0.374 -0.69,0.568 z m 1.42,-1.986 c 0.188,-0.25 0.378,-0.5 0.572,-0.745 l 16.74,24.634 c -0.24,0.175 -0.479,0.353 -0.714,0.536 z m 1.533,-1.92 c 0.2,-0.238 0.404,-0.474 0.609,-0.708 l 16.038,25.922 c -0.249,0.162 -0.495,0.328 -0.737,0.5 z m 1.646,-1.847 c 0.212,-0.225 0.427,-0.447 0.644,-0.667 l 15.247,27.171 c -0.254,0.151 -0.506,0.307 -0.755,0.468 L 104.307,75.591 Z m 1.754,-1.757 c 0.224,-0.212 0.45,-0.422 0.678,-0.629 l 14.374,28.374 c -0.262,0.14 -0.52,0.285 -0.777,0.435 z m 1.863,-1.66 c 0.235,-0.196 0.472,-0.39 0.71,-0.582 l 13.412,29.514 c -0.267,0.128 -0.531,0.261 -0.793,0.4 z m 1.965,-1.553 c 0.245,-0.181 0.491,-0.358 0.739,-0.533 l 12.371,30.59 c -0.272,0.115 -0.542,0.235 -0.809,0.36 z m 2.064,-1.428 c 0.253,-0.164 0.508,-0.326 0.765,-0.484 l 11.25,31.585 c -0.276,0.102 -0.55,0.208 -0.822,0.32 z m 2.152,-1.3 c 0.262,-0.147 0.526,-0.29 0.791,-0.43 l 10.058,32.49 c -0.28,0.09 -0.56,0.185 -0.836,0.285 z m 5.018,-2.346 c 0.277,-0.104 0.554,-0.207 0.833,-0.306 l 7.208,34.126 c -0.287,0.061 -0.572,0.128 -0.856,0.2 l -7.197,-34 z m 2.384,-0.814 c 0.282,-0.086 0.567,-0.166 0.852,-0.245 l 5.827,34.688 c -0.29,0.048 -0.58,0.101 -0.866,0.16 z m 2.437,-0.645 c 0.287,-0.065 0.574,-0.128 0.862,-0.186 l 4.407,35.13 c -0.292,0.035 -0.582,0.073 -0.87,0.119 z m 2.475,-0.473 c 0.29,-0.045 0.581,-0.085 0.873,-0.123 l 2.954,35.443 c -0.293,0.022 -0.586,0.047 -0.877,0.079 z m 2.504,-0.297 c 0.291,-0.024 0.583,-0.046 0.876,-0.064 l 1.481,35.63 a 23.19,23.19 0 0 0 -0.877,0.04 z m 2.971,80.56 c 12.23,0 22.161,-9.59 22.161,-21.398 0,-11.824 -9.931,-21.399 -22.161,-21.399 -12.246,0 -22.161,9.575 -22.161,21.399 0,11.809 9.915,21.399 22.161,21.399"
       class="or" />
    <path class="prairie"
       d="m 96.799,133.608 c 1.916,-0.087 -1.113,-1.675 0,0 2.002,2.901 8.316,8.946 10.319,11.64 1.437,1.9 1.437,4.473 2.224,6.493 1.438,4.37 7.53,4.024 11.757,4.145 10.37,0.276 20.517,4.024 30.272,0.449 v -0.45 c 3.559,-2.123 4.107,-6.268 5.664,-9.636 2.327,-4.8 6.982,-7.823 10.199,-12.089 -6.76,-0.328 -13.536,-0.673 -20.415,0 -3.32,0.346 -6.76,0.45 -10.2,-0.103 -8.213,-1.572 -16.085,-2.349 -24.18,-1.572 -5.202,0.57 -10.421,0.898 -15.64,1.123"
      />
    <path class="vert"
       d="m 106.178,141.46 c 0.495,-1.237 2.229,-1.362 3.22,-0.99 0.37,0.247 0.99,0.867 0.99,1.61 0.124,-0.372 -0.124,-0.62 -0.373,-0.62 -1.361,-0.37 -2.972,-0.866 -3.837,0.372 m 0.333,-6.195 c 0.494,-1.238 2.228,-1.361 3.22,-0.989 0.37,0.247 0.99,0.865 0.99,1.609 0.123,-0.373 -0.124,-0.62 -0.371,-0.62 -1.363,-0.37 -2.974,-0.865 -3.839,0.373 m 11.811,7.78 c 0.497,-1.238 2.229,-1.363 3.22,-0.99 0.372,0.247 0.99,0.867 0.99,1.61 0.124,-0.373 -0.123,-0.62 -0.37,-0.62 -1.362,-0.37 -2.972,-0.867 -3.84,0.37 m 0.168,-5.196 c 0.494,-1.237 2.228,-1.361 3.219,-0.988 0.37,0.247 0.99,0.865 0.99,1.608 0.124,-0.372 -0.123,-0.62 -0.372,-0.62 -1.362,-0.37 -2.972,-0.865 -3.837,0.373 m -1.997,-2.036 c 0.495,-1.238 2.229,-1.362 3.22,-0.989 0.37,0.247 0.99,0.865 0.99,1.609 0.124,-0.373 -0.124,-0.62 -0.373,-0.62 -1.361,-0.371 -2.972,-0.865 -3.837,0.372 m -1.996,16.307 c 0.494,-1.238 2.228,-1.362 3.219,-0.99 0.37,0.246 0.99,0.866 0.99,1.61 0.124,-0.371 -0.123,-0.62 -0.372,-0.62 -1.362,-0.371 -2.972,-0.867 -3.837,0.372 m -3.993,-3.865 c 0.494,-1.24 2.228,-1.363 3.219,-0.99 0.37,0.246 0.99,0.866 0.99,1.608 0.124,-0.371 -0.123,-0.618 -0.372,-0.618 -1.361,-0.373 -2.972,-0.867 -3.837,0.37 m 7.153,-2.367 c 0.496,-1.24 2.228,-1.363 3.219,-0.99 0.373,0.247 0.99,0.867 0.99,1.608 0.124,-0.37 -0.123,-0.618 -0.37,-0.618 -1.361,-0.372 -2.972,-0.867 -3.839,0.371 m 29.281,5.077 c 0.497,-1.238 2.229,-1.362 3.22,-0.989 0.372,0.247 0.99,0.865 0.99,1.609 0.124,-0.373 -0.123,-0.62 -0.37,-0.62 -1.362,-0.37 -2.973,-0.865 -3.84,0.373 m -6.154,-11.354 c 0.494,-1.238 2.228,-1.361 3.219,-0.988 0.37,0.247 0.99,0.865 0.99,1.608 0.124,-0.373 -0.123,-0.62 -0.372,-0.62 -1.362,-0.37 -2.972,-0.865 -3.837,0.373 m -1.997,-2.37 c 0.495,-1.237 2.229,-1.36 3.22,-0.988 0.37,0.247 0.99,0.865 0.99,1.609 0.123,-0.373 -0.124,-0.62 -0.373,-0.62 -1.361,-0.37 -2.972,-0.865 -3.837,0.373 m 2.495,-2.202 c 0.496,-1.238 2.228,-1.364 3.219,-0.99 0.373,0.246 0.99,0.866 0.99,1.61 0.124,-0.373 -0.123,-0.62 -0.37,-0.62 -1.362,-0.371 -2.972,-0.867 -3.84,0.37 m 13.478,1.293 c 0.494,-1.237 2.228,-1.363 3.219,-0.99 0.37,0.247 0.99,0.867 0.99,1.61 0.124,-0.372 -0.123,-0.62 -0.372,-0.62 -1.361,-0.37 -2.972,-0.867 -3.837,0.371 m 1.33,-2.202 c 0.495,-1.237 2.23,-1.361 3.22,-0.988 0.37,0.247 0.99,0.865 0.99,1.608 0.124,-0.372 -0.123,-0.62 -0.372,-0.62 -1.362,-0.37 -2.972,-0.865 -3.837,0.373 m -15.365,7.164 c 0.665,-1.663 2.994,-1.83 4.325,-1.33 0.5,0.332 1.331,1.163 1.331,2.161 0.168,-0.498 -0.165,-0.83 -0.498,-0.83 -1.83,-0.5 -3.993,-1.166 -5.158,0.498 m 2.164,2.329 c 0.665,-1.664 2.994,-1.83 4.325,-1.331 0.498,0.333 1.331,1.165 1.331,2.164 0.166,-0.5 -0.167,-0.833 -0.5,-0.833 -1.829,-0.498 -3.993,-1.164 -5.156,0.5 m -31.446,2.662 c 0.666,-1.664 2.995,-1.831 4.326,-1.331 0.5,0.333 1.33,1.164 1.33,2.162 0.168,-0.498 -0.165,-0.831 -0.497,-0.831 -1.831,-0.5 -3.993,-1.166 -5.159,0.498 m 3,-1.785 c 0.666,-1.664 2.996,-2.204 4.327,-1.706 0.498,0.333 1.33,1.166 1.33,2.164 0.166,-0.5 -0.167,-0.833 -0.5,-0.833 -1.829,-0.498 -3.992,-1.163 -5.156,0.5 m -2.168,-2.166 c 0.666,-1.663 2.995,-1.83 4.326,-1.33 0.498,0.332 1.33,1.163 1.33,2.161 0.166,-0.498 -0.167,-0.83 -0.5,-0.83 -1.829,-0.5 -3.992,-1.166 -5.156,0.498 m 2.827,-2.828 c 0.666,-1.663 2.995,-1.83 4.326,-1.33 0.5,0.332 1.331,1.163 1.331,2.161 0.167,-0.498 -0.165,-0.83 -0.498,-0.83 -1.831,-0.5 -3.993,-1.166 -5.159,0.497 m -11.811,-7.985 c 0.665,-1.664 2.995,-1.83 4.326,-1.331 0.498,0.332 1.33,1.165 1.33,2.163 0.166,-0.5 -0.167,-0.832 -0.5,-0.832 -1.829,-0.499 -3.992,-1.164 -5.156,0.5 m -1.664,-2.537 c 0.666,-1.664 2.995,-1.83 4.326,-1.33 0.498,0.332 1.33,1.163 1.33,2.161 0.166,-0.498 -0.166,-0.83 -0.5,-0.83 -1.828,-0.5 -3.992,-1.166 -5.156,0.497 m 14.696,2.649 c 0.496,-1.232 2.225,-1.352 3.217,-0.993 0.377,0.257 0.993,0.873 0.993,1.626 0.12,-0.376 -0.12,-0.633 -0.377,-0.633 -1.352,-0.36 -2.96,-0.856 -3.833,0.376 v -0.376 m 4.004,4.911 c 0.497,-1.232 2.225,-1.352 3.218,-0.992 0.376,0.256 0.992,0.873 0.992,1.608 0.12,-0.359 -0.12,-0.616 -0.376,-0.616 -1.352,-0.376 -2.96,-0.872 -3.834,0.377 v -0.377 m -0.342,4.655 c 0.496,-1.232 2.242,-1.352 3.234,-0.993 0.36,0.257 0.993,0.873 0.993,1.626 0.12,-0.376 -0.137,-0.633 -0.376,-0.633 -1.37,-0.36 -2.978,-0.856 -3.85,0.376 v -0.376 m -1.66,2.96 c 0.496,-1.232 2.241,-1.369 3.216,-0.992 0.377,0.257 0.993,0.873 0.993,1.608 0.137,-0.376 -0.12,-0.616 -0.36,-0.616 -1.368,-0.376 -2.977,-0.872 -3.85,0.377 v -0.377 m 32.155,-0.838 c 0.496,-1.232 2.224,-1.352 3.217,-0.993 0.376,0.257 0.992,0.873 0.992,1.626 0.12,-0.376 -0.12,-0.633 -0.376,-0.633 -1.352,-0.36 -2.96,-0.856 -3.833,0.376 v -0.376 m -6.76,2.79 c 0.497,-1.25 2.225,-1.37 3.217,-0.993 0.377,0.24 0.993,0.855 0.993,1.608 0.12,-0.376 -0.12,-0.616 -0.376,-0.616 -1.352,-0.376 -2.96,-0.873 -3.834,0.36 v -0.36 m -2.105,-4.107 c 0.497,-1.249 2.225,-1.369 3.218,-0.992 0.376,0.24 0.992,0.855 0.992,1.608 0.12,-0.376 -0.12,-0.616 -0.376,-0.616 -1.352,-0.376 -2.96,-0.873 -3.834,0.36 v -0.36 m 3.269,1.66 c 0.667,-1.66 2.995,-1.83 4.33,-1.335 0.496,0.343 1.334,1.164 1.334,2.174 0.154,-0.497 -0.17,-0.839 -0.513,-0.839 -1.831,-0.496 -3.987,-1.164 -5.151,0.496 v -0.496 m 3.166,-2.156 c 0.667,-1.66 2.994,-1.831 4.312,-1.335 0.514,0.325 1.335,1.164 1.335,2.156 0.171,-0.496 -0.154,-0.821 -0.496,-0.821 -1.831,-0.496 -3.988,-1.164 -5.151,0.496 v -0.496"
       id="path14458" />
    <path class="mountain"
       style="stroke:#000000;stroke-width:0.69499999"
       d="m 92.589,127.383 c 2.875,0 5.544,-0.548 8.436,-1.112 0.942,-0.223 1.9,-0.103 2.841,0.017 1.027,0.137 2.037,0.274 3.03,-0.017 4.106,-1.335 7.546,-6.88 11.088,-5.545 7.102,2.67 15.64,7.872 23.068,2.67 1.677,-1.113 3.217,0.445 4.552,1.317 0.838,0.548 2.07,0.462 3.337,0.394 1.06,-0.068 2.122,-0.137 2.994,0.171 2.208,0.77 4.432,0.89 6.64,0.993 0.342,0.12 0.667,0.342 1.01,0.445 2.772,0.342 5.322,0.547 7.871,1.78 0.993,0.547 2.225,0.547 3.32,0.547 v 0.445 c -0.222,0.222 -0.445,0.445 -0.65,0.667 -1.01,1.66 -1.112,3.987 -2.79,4.33 -2.07,0.547 -4.175,0.376 -6.314,0.188 -1.609,-0.137 -3.251,-0.291 -4.877,-0.086 -4.21,0.445 -8.54,0.788 -12.766,0.223 -3.166,-0.445 -6.297,-0.428 -9.429,-0.394 -3.132,0.034 -6.263,0.069 -9.412,-0.376 -2.995,-0.445 -5.887,-0.445 -8.881,-0.343 -3.32,0 -6.76,0.89 -9.977,0.12 -1.352,-0.342 -2.858,-0.154 -4.364,0.034 -1.848,0.24 -3.713,0.48 -5.287,-0.256 -2.003,-0.993 -2.773,-6.212 -3.44,-6.212" />
    <path class="argent"
       d="m 147.115,135.238 c 2.94,1.06 9.91,3.843 7.25,5.561 -3.32,2.174 -4.654,1.01 2.328,4.997 l -2.328,4.655 c 0,0 -14.306,-7.65 -7.153,-8.642 6.797,-0.96 4.432,-3.402 -1.384,-6.505 z m -30.3,-1.377 c -2.864,1.026 -10.052,3.862 -7.37,5.603 3.337,2.174 4.654,1.01 -2.327,4.997 l 2.327,4.655 c 0,0 14.306,-7.65 7.153,-8.642 -6.735,-0.95 -4.474,-3.357 1.226,-6.42 z" />
    <path class="sable"
       style="fill-rule:evenodd"
       d="m 115.43555,121.00586 c -2.662,0.998 -4.82428,2.99522 -6.98828,4.82422 -0.83,0.665 -2.16215,-0.33394 -2.99415,0.66406 3.494,0.168 6.65641,2.66303 10.31641,1.83203 0.833,-0.167 1.66308,-0.99905 1.33008,-1.99805 -2.33,0.666 -4.65831,0.666 -6.82031,0 -0.333,-0.167 0.99808,-0.49906 1.33008,-1.16406 l 0.16601,-0.66601 c 1.663,-0.333 2.83011,0.1679 2.66211,-1.9961 0,-0.332 1.33005,-0.66509 0.99805,-1.49609 z m 34.54492,4.19141 c -0.785,-0.001 -1.59159,0.0408 -2.43359,0.13476 l 0.66601,0.16406 c 6.74802,0.46494 9.7768,1.1067 10.9043,1.42579 0.0123,-0.004 0.0248,-0.006 0.0371,-0.01 -0.47008,-0.61614 -6.06511,-1.70754 -9.17383,-1.71484 z m 9.17383,1.71484 c 0.0256,0.006 0.0505,0.0114 0.0762,0.0176 -0.0221,-0.011 -0.0314,-0.0114 -0.0547,-0.0234 -0.007,0.002 -0.0143,0.004 -0.0215,0.006 z m 0.0762,0.0176 c 0.0494,0.0245 0.0782,0.0354 0.12109,0.0547 0.0202,0.006 0.0501,0.0136 0.0684,0.0195 v 0.0117 c -0.022,-0.009 -0.0441,-0.0203 -0.0684,-0.0312 -0.0555,-0.0172 -0.16393,-0.0426 -0.23437,-0.0625 -3.31027,0.98161 -6.76567,1.06736 -10.07422,0.40624 0.998,0.998 2.83012,0.4981 3.82812,1.4961 -2.995,0.666 -6.6544,2.66103 -9.3164,0.33203 0.666,2.662 -2.66221,3.32813 -4.65821,3.82813 1.663,0 3.49224,0.49899 4.99024,-0.5 0.665,-0.332 1.49611,-0.99808 2.16211,-1.33008 1.663,-0.832 3.6602,0.33197 5.1582,-0.83203 2.827,-1.996 5.80578,-1.83108 8.80078,-2.83008 l 0.01,-0.084 0.002,-0.0117 h 0.004 c -0.001,0.018 -0.006,0.031 -0.0156,0.0957 2.3903,0.28797 2.86301,1.53676 2.08284,2.0447 -1.08368,-0.1624 -2.0951,-0.0813 -2.02049,0.41619 -0.14589,0.25398 0.42792,0.63778 1.08043,0.84997 0.1218,0.40678 0.0569,1.30875 -0.2035,1.47609 -0.64045,0.28922 -0.9842,0.28922 -0.9842,0.28922 0,0 -9.01214,2.09492 -12.58594,2.51758 0.10171,0.003 0.23297,0.0155 0.33008,0.0176 l 0.0723,0.0273 c 5.34847,-0.69565 5.18148,-1.1553 10.20507,-0.62695 0.66946,-0.0483 1.30028,-0.0842 1.89429,-0.11099 4.66213,-0.21001 7.05658,0.14673 8.06665,-0.43589 1.5265,-0.88049 2.44922,-4.62891 2.44922,-4.62891 0,0 0.22708,0.0343 -0.57821,-0.31698 -0.3915,0.70665 -2.3901,0.0908 -3.17907,-0.52433 -0.5017,-0.3099 -0.16546,7.5e-4 -0.93608,-0.58447 -1.33758,-0.38116 -3.78311,-0.65077 -5.29883,-0.74414 v -0.24218 h -0.98242 v 0.0605 c -0.0643,-0.0152 -0.12549,-0.0316 -0.18945,-0.0469 z m -11.85352,8.15625 c -0.89705,-0.0297 -1.94271,-0.10827 -3.03515,-0.20899 l 0.10937,0.0547 -0.0605,-0.006 c 0.108,0.057 0.22185,0.11578 0.33985,0.17578 0.7903,0.0663 3.38445,-0.0821 4.33398,-0.1406 z m -3.03515,-0.20899 -0.45508,-0.22851 c -10.95331,-1.32679 -4.94819,-0.26962 0.45508,0.22851 z M 98.402374,127.4219 c -0.148706,-0.0119 -0.296665,0.0111 -0.433594,0.0703 -1.166,0.666 -2.663141,1 -3.994141,1 0.999,1.996 1.830172,4.32523 3.826172,4.99023 1.79,0.651 4.215699,0.19188 6.345699,0.17188 -0.0645,0.0515 -0.12867,0.10432 -0.18945,0.16015 3.993,-0.165 7.81855,0.33394 11.81055,-0.16406 -3.55,0.16 -8.66288,-2.33955 -11.54688,-0.0605 -1.161,-0.985 -2.73575,-2.13657 -1.59375,-3.76757 -2.163,0.666 -3.4942,1.49814 -5.1582,2.99414 0,-0.998 0.833047,-1.83011 0.998047,-2.66211 0,-0.665 -0.830031,-1.1631 -0.332031,-1.9961 0.135,-0.269 0.378359,-0.6395 0.818359,-0.6875 -0.193,-0.02 -0.378828,-0.0438 -0.548828,-0.0488 z m 19.197266,1.40234 c 1.164,1.331 3.99322,2.49605 4.82422,0.99805 0.665,-1.331 -3.16022,-0.49805 -4.82422,-0.99805 z m 3.12109,4.7539 c -0.477,-0.005 -0.94387,0.0615 -1.29687,0.3125 0.438,0.017 0.86592,8.3e-4 1.16992,-0.20117 0.04,-0.04 0.085,-0.0743 0.12695,-0.11133 z m -10.19726,8.9336 c -0.68981,0.38418 -2.0601,1.1589 -3.10352,1.77539 v 0.002 c 0.83,-0.473 1.53591,-0.87103 2.12891,-1.20703 1.67465,-0.94823 1.66442,-0.9545 0.97461,-0.57031 z m -3.57617,1.6582 -0.27344,0.1543 z m 50.18945,1.48828 -2.61719,5.25391 z m -0.87695,0.26953 -2.03516,4.06836 z" />
  </g>
</svg>
